<svg width="941" height="75" viewBox="0 0 941 75" fill="none" xmlns="http://www.w3.org/2000/svg">
<mask id="mask0_25497_5819" style="mask-type:alpha" maskUnits="userSpaceOnUse" x="0" y="29" width="150" height="18">
<g clip-path="url(#clip0_25497_5819)">
<path d="M19.3928 46.1852H24.8712L27.8083 29.375H22.3299L21.2467 35.395H16.4974L17.5805 29.375H12.1021L9.16504 46.1852H14.6434L15.7475 39.8944H20.4968L19.3928 46.1852Z" fill="white"/>
<path d="M30.9128 29.3538L29.2464 38.7067C29.1006 39.4358 29.0381 40.144 29.0381 40.8106C29.0381 45.7682 33.3708 46.5181 35.9746 46.5181C41.4322 46.5181 43.786 44.7059 44.6401 39.8107L46.4732 29.333H40.9948L39.4325 38.1234C38.9325 40.8731 38.5784 42.3104 36.537 42.3104C35.2039 42.3104 34.5582 41.6021 34.5582 40.144C34.5582 39.5816 34.6415 38.8942 34.8081 38.0401L36.3912 29.333H30.9128V29.3538Z" fill="white"/>
<path d="M75.4268 46.1855H80.9052L81.6759 41.8528H84.2589C89.029 41.8528 91.6745 39.2698 91.6745 34.5621C91.6745 31.2501 89.3831 29.3545 85.3629 29.3545H78.3639L75.4268 46.1855ZM83.9672 37.7075H82.3841L83.1132 33.7497H84.5922C85.8003 33.7497 86.4461 34.3538 86.4461 35.4578C86.4461 36.8535 85.5087 37.7075 83.9672 37.7075Z" fill="white"/>
<path d="M102.319 29C96.3618 29 92.7998 32.8536 92.7998 39.3319C92.7998 43.8313 95.6327 46.5392 100.382 46.5392C106.34 46.5392 109.902 42.6856 109.902 36.2073C109.922 31.6871 107.089 29 102.319 29ZM100.715 42.1857C99.2989 42.1857 98.4657 41.165 98.4657 39.4569C98.4657 38.8111 98.5282 38.2487 98.6532 37.603C99.0698 35.3949 99.778 33.3744 102.007 33.3744C103.423 33.3744 104.257 34.3951 104.257 36.1032C104.257 36.7489 104.194 37.3113 104.069 37.9571C103.652 40.1443 102.944 42.1857 100.715 42.1857Z" fill="white"/>
<path d="M128.962 46.1852H134.44L136.606 33.8744H140.731L141.522 29.375H127.503L126.712 33.8744H131.086L128.962 46.1852Z" fill="white"/>
<path d="M119.879 35.5824C118.15 35.0408 117.442 34.8117 117.442 33.9993C117.442 33.4577 117.796 32.812 118.838 32.812C119.608 32.812 120.254 33.2494 120.504 33.8952L125.337 32.5828C124.774 30.2082 122.733 29 119.213 29C112.589 29 112.068 33.4369 112.068 34.7909C112.068 37.5405 113.526 39.2277 116.692 40.1026C117.525 40.3318 118.484 40.5817 118.484 41.4983C118.484 42.2273 117.942 42.6856 117.005 42.6856C116.151 42.6856 115.234 42.1857 114.922 41.3108L110.151 42.6023C110.672 45.1019 113.026 46.5184 116.713 46.5184C119.525 46.5184 124.233 45.7685 124.233 40.6859C124.254 38.1446 122.816 36.4781 119.879 35.5824Z" fill="black"/>
<path d="M6.10332 46.1852L9.06124 29.375H0V46.1852H6.10332Z" fill="#0DBE98"/>
<path d="M143.876 29.375L140.938 46.1852H150V29.375H143.876Z" fill="#0DBE98"/>
<path d="M53.0134 41.2278H57.617L58.3669 36.9993H53.7633L54.2841 33.8747H60.7207L61.5123 29.3545H49.5972L46.6602 46.1855H52.1386L53.0134 41.2278Z" fill="black"/>
<path d="M67.3657 41.2278H71.99L72.7399 36.9993H68.1364L68.6571 33.8747H75.0937L75.8853 29.3545H63.9703L61.0332 46.1855H66.5116L67.3657 41.2278Z" fill="black"/>
</g>
</mask>
<g mask="url(#mask0_25497_5819)">
<rect x="-140.25" y="-60.25" width="833.25" height="336.75" fill="#838383"/>
</g>
<mask id="mask1_25497_5819" style="mask-type:alpha" maskUnits="userSpaceOnUse" x="240" y="24" width="150" height="28">
<g clip-path="url(#clip1_25497_5819)">
<path d="M240 24H250.997C253.092 24 254.663 24.5237 255.826 25.3964C257.106 26.4438 257.805 27.9566 257.805 29.8185C257.805 31.9713 256.932 33.3095 255.186 34.1241V34.2405C257.514 34.9969 258.852 37.0915 258.852 39.5935C258.852 41.9791 257.921 43.841 256.408 45.0047C255.128 45.9356 253.499 46.3429 251.288 46.3429H240V24ZM249.891 32.7277C251.055 32.7277 251.928 32.0877 251.928 30.7494C251.928 29.4694 251.055 28.8293 249.833 28.8293H246.051V32.6695H249.891V32.7277ZM250.415 41.3972C251.753 41.3972 252.742 40.5826 252.742 39.128C252.742 37.557 251.695 36.8588 250.415 36.8588H246.109V41.4554H250.415V41.3972Z" fill="black"/>
<path d="M259.841 24H265.601V46.4011H259.841V24Z" fill="black"/>
<path d="M266.765 38.4299C266.765 33.3679 270.023 29.9932 275.085 29.9932C280.147 29.9932 283.347 33.4261 283.347 38.4299C283.347 43.492 280.147 46.8667 275.085 46.8667C270.023 46.8667 266.765 43.492 266.765 38.4299ZM277.587 38.4299C277.587 35.6371 276.714 33.8915 274.969 33.8915C273.223 33.8915 272.409 35.6371 272.409 38.4299C272.409 41.2228 273.223 43.0265 274.969 43.0265C276.714 42.9683 277.587 41.2228 277.587 38.4299Z" fill="black"/>
<path d="M283.987 38.4299C283.987 33.3679 287.246 29.9932 292.308 29.9932C297.37 29.9932 300.512 33.3679 300.512 38.4299C300.512 43.492 297.312 46.8667 292.25 46.8667C287.246 46.8667 283.987 43.492 283.987 38.4299ZM294.81 38.4299C294.81 35.6371 293.937 33.8915 292.191 33.8915C290.446 33.8915 289.631 35.6371 289.631 38.4299C289.631 41.2228 290.446 43.0265 292.191 43.0265C293.937 42.9683 294.81 41.2228 294.81 38.4299Z" fill="black"/>
<path d="M301.676 30.4H307.029V32.7856H307.145C308.192 30.9237 309.647 29.9346 311.974 29.9346C314.011 29.9346 315.524 30.9237 316.28 32.6692H316.396C317.677 30.5746 319.364 29.9346 321.342 29.9346C325.066 29.9346 326.637 32.6692 326.637 36.3349V46.3426H321.051V37.324C321.051 35.6948 320.528 34.6475 319.131 34.6475C317.735 34.6475 317.037 35.9276 317.037 37.6731V46.3426H311.451V37.324C311.451 35.6948 310.927 34.6475 309.531 34.6475C308.134 34.6475 307.436 35.9276 307.436 37.6731V46.3426H301.676V30.4Z" fill="black"/>
<path d="M333.677 44.2483H333.619V46.3429H328.266V24H333.851V32.0295H333.968C335.015 30.633 336.47 29.8766 338.506 29.8766C342.521 29.8766 344.848 33.4841 344.848 38.3134C344.848 43.7246 342.346 46.8666 338.157 46.8666C336.411 46.8666 334.608 46.052 333.677 44.2483ZM339.088 38.2552C339.088 35.6951 338.157 34.0078 336.47 34.0078C334.724 34.0078 333.677 35.6951 333.677 38.2552C333.677 40.8154 334.782 42.5027 336.47 42.5027C338.157 42.5027 339.088 40.8735 339.088 38.2552Z" fill="black"/>
<path d="M345.488 38.3713C345.488 33.3675 348.805 29.9346 353.576 29.9346C355.962 29.9346 357.765 30.691 359.162 32.0292C361.024 33.8329 361.838 36.6258 361.78 39.8841H351.074C351.307 41.8624 352.238 42.9097 353.925 42.9097C354.914 42.9097 355.787 42.4443 356.136 41.3969H361.547C360.616 45.0626 357.765 46.8663 353.751 46.8663C348.805 46.8081 345.488 43.4334 345.488 38.3713ZM351.074 36.684H356.194C356.078 34.7639 355.031 33.7748 353.692 33.7748C352.121 33.7166 351.249 34.8221 351.074 36.684Z" fill="black"/>
<path d="M368.123 33.1346H368.239C369.403 30.9236 370.915 30.0508 372.835 30.0508C373.301 30.0508 373.592 30.109 373.766 30.2253V35.1128H373.65C370.334 34.531 368.413 36.102 368.413 39.7094V46.4007H362.77V30.3999H368.123V33.1346Z" fill="black"/>
<path d="M374.349 46.4014H379.76C379.992 47.0996 380.691 47.7396 382.029 47.7396C383.833 47.7396 384.473 46.6341 384.473 44.9468V43.7831H384.356C383.484 44.8304 382.262 45.5868 380.516 45.5868C377.083 45.5868 374.058 43.0267 374.058 38.0228C374.058 33.4262 376.501 29.877 380.225 29.877C382.378 29.877 383.658 30.7497 384.531 32.088H384.647V30.3424H390V44.1904C390 46.7505 389.127 48.7288 387.789 49.8925C386.393 51.1143 384.414 51.638 382.145 51.638C377.84 51.6962 374.872 49.9507 374.349 46.4014ZM384.705 37.7901C384.705 35.8118 383.774 34.1826 382.145 34.1826C380.574 34.1826 379.585 35.579 379.585 37.7901C379.585 39.9429 380.574 41.4557 382.145 41.4557C383.716 41.4557 384.705 39.8847 384.705 37.7901Z" fill="black"/>
</g>
</mask>
<g mask="url(#mask1_25497_5819)">
<rect x="210.75" y="-35.25" width="208.5" height="144.75" fill="#838383"/>
</g>
<mask id="mask2_25497_5819" style="mask-type:alpha" maskUnits="userSpaceOnUse" x="480" y="20" width="70" height="35">
<g clip-path="url(#clip2_25497_5819)">
<path d="M515 20V31.6667H503.333V55H491.667V31.6667H480V20H515Z" fill="#0A9E01"/>
<path d="M550 20H526.667V31.6667H550V20Z" fill="#0A9E01"/>
<path d="M550 43.3337V55.0003H515V31.667H526.667V43.3337H550Z" fill="#0A9E01"/>
</g>
</mask>
<g mask="url(#mask2_25497_5819)">
<rect x="393.375" y="-64.875" width="243.25" height="168.875" fill="#838383"/>
</g>
<path d="M657.957 15.9941V29.6541L697.207 29.6529V15.9941H657.957ZM691.8 19.6754L692.168 19.6829C692.24 19.6854 692.299 19.7491 692.299 19.8079V25.8991L691.799 25.4691C691.82 25.4316 691.837 25.3941 691.837 25.3441V19.7729C691.83 19.7404 691.822 19.7154 691.812 19.6916L691.8 19.6754ZM692.148 26.0004H689.05C689.036 25.9171 689.005 25.8378 688.957 25.7679C688.91 25.698 688.848 25.6392 688.775 25.5954H691.56C691.59 25.597 691.62 25.591 691.647 25.5779L692.148 26.0004ZM685.464 19.7679C685.539 19.7147 685.626 19.6811 685.718 19.6704C685.745 19.6704 685.78 19.6654 685.812 19.6654H685.839C686.402 19.6654 687.07 19.7066 687.589 19.9004C688.108 20.0941 688.457 20.4166 688.458 21.0254H688.645C688.649 20.4279 688.998 20.1129 689.518 19.9004C690.018 19.7054 690.705 19.6654 691.262 19.6654H691.324C691.352 19.6654 691.374 19.6704 691.399 19.6704C691.454 19.679 691.508 19.6937 691.559 19.7141C691.593 19.7316 691.618 19.7479 691.632 19.7579L691.639 25.3291C691.639 25.3754 691.602 25.4104 691.564 25.4104H685.539C685.498 25.4104 685.464 25.3729 685.464 25.3291V19.7666V19.7679ZM685.539 25.5966H688.167C688.024 25.6841 687.92 25.8466 687.892 26.0016H684.925C684.913 26.0016 684.905 25.9991 684.893 25.9991L685.41 25.5616C685.45 25.5841 685.494 25.5991 685.539 25.5991V25.5966ZM684.805 19.7966C684.805 19.7504 684.859 19.6879 684.933 19.6716L685.304 19.6641C685.289 19.6894 685.28 19.7176 685.278 19.7466V25.3179C685.278 25.3479 685.283 25.3779 685.293 25.4029L684.793 25.8191V19.7816L684.805 19.7966ZM681.277 19.6941C681.345 19.6941 681.407 19.7654 681.407 19.8191V25.8691L680.909 25.4516C680.923 25.4211 680.931 25.3879 680.932 25.3541V19.7791C680.925 19.7466 680.917 19.7266 680.907 19.7041L681.275 19.7054L681.277 19.6941ZM681.297 26.0141H678.157C678.145 25.9313 678.116 25.8519 678.071 25.7812C678.027 25.7105 677.968 25.6501 677.898 25.6041H680.669C680.707 25.6041 680.744 25.5941 680.794 25.5791L681.297 26.0141ZM677.747 20.8366C677.75 20.3141 678.024 20.0366 678.428 19.8704C678.832 19.7041 679.355 19.6654 679.793 19.6654L680.493 19.6779C680.551 19.6852 680.608 19.7021 680.662 19.7279C680.692 19.7404 680.722 19.7604 680.737 19.7729L680.743 19.7779V25.3454C680.743 25.3866 680.709 25.4166 680.67 25.4166H677.748L677.747 20.8366ZM674.568 19.7766C674.583 19.7679 674.627 19.7354 674.678 19.7141C674.727 19.697 674.778 19.6865 674.829 19.6829L675.542 19.6641C675.974 19.6641 676.497 19.7016 676.897 19.8691C677.293 20.0441 677.562 20.3141 677.563 20.8354V25.4141H674.65C674.604 25.4141 674.57 25.3841 674.57 25.3429V19.7754L674.568 19.7766ZM674.648 25.6016H677.258C677.188 25.6474 677.128 25.7076 677.083 25.7784C677.038 25.8491 677.008 25.9286 676.997 26.0116H674.029C674.017 26.0116 674.004 26.0116 673.989 26.0054L674.514 25.5654C674.552 25.5904 674.597 25.6016 674.648 25.6016ZM673.908 19.8054C673.908 19.7654 673.965 19.6804 674.039 19.6804L674.408 19.6791C674.395 19.7016 674.387 19.7229 674.383 19.7541V25.3291C674.384 25.3563 674.391 25.383 674.402 25.4079L673.909 25.8241L673.908 19.8054ZM670.012 19.6804L670.379 19.6816C670.448 19.6816 670.51 19.7529 670.51 19.8066V25.8716L670.01 25.4466C670.023 25.4141 670.033 25.3791 670.033 25.3416V19.7666C670.032 19.7354 670.023 19.7141 670.01 19.6916L670.012 19.6804ZM670.394 26.0016H667.26C667.248 25.9193 667.219 25.8403 667.175 25.7697C667.131 25.6991 667.073 25.6385 667.004 25.5916H669.772C669.809 25.5916 669.849 25.5854 669.882 25.5716L670.394 26.0016ZM666.854 20.8241C666.858 20.3016 667.129 20.0241 667.532 19.8579C667.934 19.6916 668.462 19.6529 668.902 19.6529L669.597 19.6654C669.614 19.6654 669.7 19.6829 669.765 19.7154C669.793 19.7271 669.818 19.7422 669.842 19.7604L669.848 19.7654V25.3329C669.848 25.3741 669.814 25.4041 669.77 25.4041H666.85L666.854 20.8241ZM663.672 19.7641C663.687 19.7554 663.732 19.7229 663.797 19.7016C663.845 19.6853 663.896 19.6749 663.947 19.6704L664.657 19.6516C665.09 19.6516 665.609 19.6891 666.009 19.8566C666.407 20.0316 666.675 20.3016 666.68 20.8229L666.679 25.4016H663.75C663.707 25.4016 663.67 25.3716 663.67 25.3304L663.672 19.7641ZM663.75 25.6004H666.375C666.233 25.6941 666.142 25.8404 666.115 26.0104H663.125C663.1 26.0104 663.084 26.0104 663.072 26.0016L663.593 25.5566C663.634 25.5841 663.688 25.6004 663.739 25.6004H663.75ZM663 19.8041C663 19.7641 663.058 19.6791 663.129 19.6791L663.494 19.6779C663.482 19.7004 663.477 19.7179 663.472 19.7529V25.3279C663.472 25.3491 663.477 25.3691 663.484 25.3954L663 25.8054V19.8041ZM662.345 26.4591C662.248 26.4591 662.174 26.3779 662.174 26.2841V25.3716C661.918 25.3391 661.719 25.1791 661.719 24.9904C661.719 24.8016 661.919 24.6404 662.174 24.6066V21.6629C661.918 21.6254 661.719 21.4704 661.719 21.2816C661.719 21.0929 661.919 20.9366 662.174 20.8991V19.7316C662.174 19.6366 662.249 19.5629 662.345 19.5629L662.855 19.6629C662.83 19.7004 662.814 19.7504 662.813 19.8029V25.9104C662.814 26.0791 662.959 26.1979 663.123 26.1979H666.09C666.105 26.2954 666.147 26.3829 666.205 26.4579L662.345 26.4591ZM666.839 26.4591H666.495C666.427 26.4253 666.369 26.3729 666.328 26.308C666.288 26.2431 666.266 26.1682 666.265 26.0916C666.265 25.9852 666.308 25.8832 666.383 25.8079C666.458 25.7327 666.56 25.6904 666.667 25.6904C666.773 25.6904 666.875 25.7327 666.95 25.8079C667.026 25.8832 667.068 25.9852 667.068 26.0916C667.068 26.2541 666.974 26.3916 666.838 26.4591H666.839ZM671.572 24.9916C671.572 25.1791 671.374 25.3341 671.119 25.3729V26.2854C671.119 26.3766 671.044 26.4604 670.948 26.4604H667.125C667.183 26.3829 667.223 26.2937 667.243 26.1991H670.373C670.532 26.1991 670.677 26.0804 670.677 25.9116V19.8041C670.677 19.7341 670.652 19.6741 670.614 19.6266L670.947 19.5641C671.043 19.5641 671.118 19.6391 671.118 19.7329V20.9016C671.374 20.9391 671.57 21.0916 671.57 21.2829C671.57 21.4741 671.373 21.6266 671.118 21.6641V24.6079C671.375 24.6454 671.572 24.8054 671.572 24.9916ZM673.234 26.4591C673.14 26.4591 673.067 26.3779 673.067 26.2841V25.3716C672.817 25.3391 672.609 25.1791 672.609 24.9904C672.609 24.8016 672.804 24.6404 673.067 24.6066V21.6629C672.817 21.6254 672.609 21.4704 672.609 21.2816C672.609 21.0929 672.804 20.9366 673.067 20.8991V19.7316C673.067 19.6366 673.139 19.5629 673.234 19.5629L673.734 19.6629C673.709 19.7029 673.697 19.7504 673.697 19.8029V25.9104C673.697 26.0791 673.839 26.1979 674.003 26.1979H676.972C676.989 26.2924 677.028 26.3814 677.087 26.4579L673.234 26.4591ZM677.73 26.4591H677.384C677.254 26.3916 677.157 26.2554 677.157 26.0916C677.157 25.8741 677.338 25.6941 677.562 25.6941C677.667 25.6938 677.769 25.7355 677.844 25.81C677.92 25.8845 677.962 25.9858 677.963 26.0916C677.964 26.2541 677.865 26.3916 677.73 26.4591ZM682.463 24.9916C682.463 25.1791 682.27 25.3341 682.013 25.3729V26.2854C682.013 26.3312 681.994 26.375 681.962 26.4075C681.93 26.4399 681.886 26.4585 681.84 26.4591H678.022C678.079 26.3817 678.118 26.2924 678.137 26.1979H681.264C681.427 26.1979 681.574 26.0791 681.574 25.9104V19.8029C681.574 19.7329 681.549 19.6729 681.509 19.6254L681.842 19.5629C681.939 19.5629 682.014 19.6379 682.014 19.7316V20.9004C682.272 20.9379 682.464 21.0904 682.464 21.2816C682.464 21.4729 682.272 21.6254 682.014 21.6629V24.6066C682.272 24.6441 682.464 24.8041 682.464 24.9904L682.463 24.9916ZM684.129 26.4591C684.042 26.4591 683.96 26.3779 683.96 26.2841V25.3716C683.71 25.3391 683.507 25.1791 683.507 24.9904C683.507 24.8016 683.7 24.6404 683.96 24.6066V21.6629C683.71 21.6254 683.507 21.4704 683.507 21.2816C683.507 21.0929 683.7 20.9366 683.96 20.8991V19.7316C683.96 19.6366 684.039 19.5629 684.129 19.5629L684.635 19.6629C684.614 19.7032 684.602 19.7475 684.6 19.7929V25.9004C684.604 26.0654 684.745 26.1829 684.908 26.1829H687.875C687.893 26.2854 687.938 26.3754 687.997 26.4579L684.129 26.4591ZM688.627 26.4591H688.283C688.158 26.3916 688.054 26.2554 688.054 26.0916C688.055 25.9864 688.097 25.8857 688.171 25.8113C688.246 25.7369 688.346 25.6948 688.452 25.6941C688.677 25.6941 688.858 25.8741 688.858 26.0916C688.858 26.2541 688.759 26.3916 688.627 26.4591ZM693.36 24.9916C693.36 25.1791 693.164 25.3416 692.902 25.3729V26.2854C692.902 26.3766 692.829 26.4604 692.735 26.4604H688.913C688.975 26.3801 689.016 26.2856 689.033 26.1854H692.155C692.32 26.1854 692.468 26.0679 692.468 25.8979V19.7941C692.468 19.7291 692.445 19.6741 692.413 19.6266L692.735 19.5641C692.829 19.5641 692.902 19.6391 692.902 19.7329V20.9004C693.152 20.9379 693.36 21.0904 693.36 21.2829C693.36 21.4754 693.164 21.6266 692.902 21.6641V24.6079C693.152 24.6454 693.36 24.8054 693.36 24.9916ZM668.365 23.9416C668.173 23.9416 668.119 23.8941 668.119 23.7166V22.7391C668.409 22.7391 668.559 22.8579 668.597 23.3641H668.669V22.0004H668.597C668.549 22.5004 668.402 22.6079 668.119 22.6029V21.6654C668.119 21.4904 668.169 21.4779 668.332 21.4779C668.728 21.4779 668.937 21.5779 669.002 22.1529H669.074V21.3379H667.379V21.4416C667.504 21.4541 667.629 21.4604 667.629 21.7291V23.6879C667.629 23.9304 667.538 23.9466 667.379 23.9691V24.0716H669.102L669.22 23.2279H669.135C668.95 23.8529 668.655 23.9454 668.364 23.9454L668.365 23.9416ZM689.975 23.8591C690.067 23.8591 690.197 23.9841 690.479 23.9841C691.017 23.9841 691.207 23.4941 691.207 23.1341C691.207 22.6966 690.985 22.4616 690.882 22.3841L690.454 22.0904C690.204 21.9216 690.15 21.8329 690.15 21.6154C690.15 21.3654 690.313 21.2316 690.463 21.2316C690.813 21.2316 690.988 21.6941 691.043 21.9754H691.123V21.1004H691.039C691.022 21.1816 691.008 21.2416 690.939 21.2416C690.857 21.2416 690.718 21.1066 690.483 21.1066C689.923 21.1066 689.833 21.6566 689.833 21.9066C689.833 22.0941 689.833 22.4391 690.337 22.7816L690.534 22.9066C690.722 23.0291 690.859 23.1279 690.859 23.4066C690.859 23.4654 690.85 23.8654 690.484 23.8654C690.109 23.8654 689.938 23.4029 689.878 22.9979H689.793V23.9979H689.878C689.893 23.9316 689.903 23.8729 689.965 23.8729L689.975 23.8591ZM664.3 21.6654L665.05 24.0866H665.129L665.799 21.7166C665.868 21.4916 665.904 21.4104 666.064 21.3854V21.2829H665.439V21.3854C665.608 21.3979 665.693 21.4104 665.693 21.5679C665.693 21.6504 665.66 21.7554 665.635 21.8491L665.26 23.1741L664.879 21.8991C664.852 21.7991 664.788 21.6266 664.788 21.5491C664.788 21.3991 664.858 21.3991 665.044 21.3829V21.2804H664.044V21.3829C664.169 21.4079 664.215 21.4204 664.29 21.6629L664.3 21.6654ZM676.022 23.8904C675.832 23.8529 675.765 23.8404 675.765 23.5204V22.7279H675.844L676.454 23.9954H677.054V23.8904C677.017 23.8904 676.973 23.8891 676.933 23.8154L676.342 22.6654C676.499 22.5929 676.802 22.4704 676.802 21.9704C676.802 21.2916 676.182 21.2604 675.977 21.2604H675.03V21.3679C675.198 21.3804 675.29 21.3879 675.29 21.7329V23.5204C675.29 23.8454 675.228 23.8579 675.03 23.8904V23.9954H676.022V23.8904ZM675.765 21.5704C675.778 21.4416 675.785 21.3991 675.95 21.3991C676.184 21.3991 676.304 21.5741 676.304 21.9816C676.304 22.5029 676.154 22.6066 675.767 22.5966L675.765 21.5704ZM686.312 21.3929V23.5179C686.312 23.8554 686.244 23.8679 686.027 23.8879V23.9929H687.079V23.8754C686.858 23.8554 686.788 23.8466 686.788 23.5054V21.3804C686.99 21.3891 687.294 21.4179 687.35 22.0641H687.438L687.434 21.2391H685.668L685.662 22.0541H685.749C685.804 21.4041 686.104 21.3791 686.312 21.3704V21.3929ZM688.099 23.8866C687.999 23.8779 687.857 23.8666 687.857 23.7141C687.857 23.6454 687.907 23.4791 687.99 23.1854H688.65C688.688 23.3154 688.779 23.6166 688.779 23.7266C688.779 23.8604 688.729 23.8666 688.549 23.8866V23.9816H689.499V23.8754C689.359 23.8841 689.312 23.7429 689.179 23.3129L688.527 21.1879H688.445L687.795 23.4004C687.704 23.7054 687.664 23.8441 687.505 23.8754V23.9704H688.102L688.099 23.8866ZM688.308 22.0529L688.603 23.0316H688.03L688.308 22.0529ZM678.683 21.3679C678.808 21.3766 678.955 21.3854 678.955 21.6479V23.6016C678.955 23.8516 678.84 23.8691 678.683 23.8891V23.9941H679.713V23.8891C679.55 23.8766 679.433 23.8604 679.433 23.6016V21.6516C679.433 21.3816 679.573 21.3766 679.713 21.3716V21.2504H678.683V21.3679ZM684.663 30.9179C684.912 31.3003 685.08 31.7301 685.155 32.1804C685.368 33.4516 684.748 34.7954 682.424 34.9304C682.387 36.8354 681.918 37.6141 679.502 37.6554C679.71 39.6829 678.652 40.3429 677.51 40.3429C676.369 40.3429 675.304 39.6841 675.514 37.6554C673.098 37.6116 672.632 36.8329 672.589 34.9304C670.264 34.8091 669.648 33.4654 669.864 32.1804C669.934 31.7279 670.109 31.2891 670.354 30.9304H657.954V31.5604C657.975 54.8754 677.234 64.9004 677.292 64.9316L677.583 65.0879L677.879 64.9316C677.937 64.9004 697.198 54.8629 697.217 31.5604V30.9304L684.663 30.9179ZM668.575 52.3004C669.038 52.0579 669.392 51.3466 669.475 50.8629C669.6 50.2379 669.718 49.9879 670.05 49.9654C670.383 49.9429 670.513 50.2379 670.625 50.8629C670.708 51.3466 671.06 52.0566 671.523 52.3004C671.81 52.4529 672.74 52.4754 672.552 53.0204C672.423 53.2679 672.252 53.7754 672.002 53.5504C671.752 53.3254 671.312 52.7379 671.127 52.7004C670.959 52.6716 670.983 52.9254 671.054 53.0129C671.152 53.1229 671.445 53.5504 671.613 53.7466C671.825 53.9866 671.89 54.4279 671.519 54.6016C671.148 54.7754 670.769 54.5541 670.778 54.3554C670.79 54.0554 670.612 53.1991 670.449 53.1991C670.32 53.1991 670.315 53.4241 670.329 53.6641C670.279 54.1691 670.617 54.5729 670.579 54.8329C670.533 55.0854 670.479 55.3541 670.037 55.3491C669.592 55.3366 669.537 55.0991 669.494 54.8329C669.453 54.5829 669.794 54.1679 669.739 53.6641C669.754 53.4229 669.749 53.1991 669.62 53.1991C669.463 53.1991 669.275 54.0566 669.295 54.3554C669.303 54.5554 668.92 54.7766 668.55 54.6016C668.18 54.4266 668.245 53.9854 668.454 53.7466C668.623 53.5491 668.92 53.1241 669.017 53.0129C669.085 52.9254 669.114 52.6716 668.944 52.7004C668.773 52.7379 668.339 53.3229 668.084 53.5504C667.829 53.7779 667.662 53.2679 667.534 53.0204C667.347 52.4766 668.274 52.4529 668.563 52.3004H668.575ZM668.893 50.7004C669.189 50.6666 669.04 50.9754 669.009 51.2504C668.978 51.5254 668.904 51.5504 668.618 51.1654C668.332 50.7804 668.572 50.7366 668.893 50.7029V50.7004ZM671.193 50.7279C671.512 50.7704 671.755 50.8154 671.468 51.1904C671.18 51.5754 671.108 51.5454 671.075 51.2779C671.043 51.0104 670.894 50.6979 671.193 50.7254V50.7279ZM684.893 53.1991C684.734 53.1991 684.555 54.0566 684.568 54.3554C684.575 54.5554 684.198 54.7766 683.824 54.6016C683.45 54.4266 683.52 53.9854 683.73 53.7466C683.9 53.5491 684.199 53.1241 684.293 53.0129C684.36 52.9254 684.387 52.6716 684.218 52.7004C684.049 52.7379 683.612 53.3229 683.343 53.5504C683.074 53.7779 682.922 53.2679 682.793 53.0204C682.6 52.4779 683.533 52.4529 683.818 52.3004C684.28 52.0579 684.634 51.3466 684.718 50.8629C684.827 50.2379 684.968 49.9879 685.293 49.9654C685.618 49.9429 685.75 50.2379 685.868 50.8629C685.949 51.3466 686.305 52.0566 686.768 52.3004C687.055 52.4529 687.984 52.4754 687.797 53.0204C687.665 53.2679 687.497 53.7754 687.243 53.5504C686.989 53.3254 686.555 52.7379 686.384 52.7004C686.218 52.6716 686.242 52.9254 686.312 53.0129C686.412 53.1229 686.707 53.5504 686.877 53.7466C687.089 53.9866 687.152 54.4279 686.777 54.6016C686.402 54.7754 686.027 54.5541 686.037 54.3554C686.049 54.0554 685.868 53.1991 685.708 53.1991C685.578 53.1991 685.583 53.4241 685.589 53.6641C685.534 54.1691 685.877 54.5729 685.832 54.8329C685.79 55.0854 685.735 55.3541 685.294 55.3491C684.847 55.3366 684.794 55.0991 684.749 54.8329C684.707 54.5829 685.047 54.1679 684.994 53.6641C685.012 53.4229 685.009 53.1991 684.875 53.1991H684.893ZM684.152 50.6991C684.452 50.6654 684.298 50.9741 684.27 51.2491C684.243 51.5241 684.163 51.5491 683.879 51.1641C683.595 50.7791 683.834 50.7354 684.154 50.7016L684.152 50.6991ZM686.452 50.7266C686.774 50.7691 687.01 50.8141 686.727 51.1891C686.442 51.5741 686.367 51.5441 686.335 51.2766C686.304 51.0091 686.15 50.6966 686.45 50.7241L686.452 50.7266ZM686.727 35.8216C686.442 36.2041 686.367 36.1766 686.335 35.9054C686.304 35.6341 686.15 35.3266 686.45 35.3554C686.772 35.3904 687.01 35.4429 686.727 35.8216ZM684.149 35.3266C684.449 35.2941 684.295 35.6054 684.268 35.8729C684.24 36.1404 684.16 36.1766 683.877 35.7929C683.593 35.4091 683.832 35.3591 684.152 35.3266H684.149ZM683.832 36.9266C684.294 36.6841 684.648 35.9804 684.732 35.4916C684.84 34.8629 684.982 34.6166 685.307 34.5916C685.632 34.5854 685.764 34.8641 685.882 35.4916C685.963 35.9916 686.319 36.6829 686.782 36.9266C687.069 37.0816 687.998 37.1016 687.81 37.6479C687.679 37.9029 687.51 38.4029 687.257 38.1779C687.003 37.9529 686.569 37.3654 686.398 37.3304C686.227 37.2954 686.255 37.5629 686.325 37.6391C686.425 37.7554 686.72 38.1766 686.89 38.3716C687.103 38.6129 687.165 39.0591 686.79 39.2466C686.415 39.4341 686.04 39.1966 686.05 38.9966C686.063 38.6966 685.882 37.8391 685.722 37.8391C685.592 37.8391 685.597 38.0591 685.603 38.3066C685.548 38.8104 685.89 39.2116 685.845 39.4729C685.8 39.7341 685.749 39.9954 685.308 39.9891C684.86 39.9791 684.808 39.7316 684.763 39.4729C684.718 39.2141 685.06 38.8104 685.008 38.3066C685.028 38.0591 685.024 37.8391 684.889 37.8391C684.73 37.8391 684.552 38.6979 684.564 38.9966C684.572 39.1929 684.194 39.4179 683.82 39.2466C683.447 39.0754 683.517 38.6254 683.727 38.3891C683.897 38.1891 684.195 37.7679 684.289 37.6391C684.357 37.5641 684.383 37.2979 684.214 37.3304C684.045 37.3629 683.608 37.9504 683.339 38.1779C683.07 38.4054 682.918 37.9029 682.789 37.6479C682.597 37.1004 683.529 37.0829 683.814 36.9266H683.832ZM685.307 43.0516C685.094 40.9016 686.449 40.2841 688.059 40.4079C687.847 38.2579 688.934 37.5541 690.857 37.6354C690.602 35.1191 692.299 34.8291 693.614 34.9129C693.41 33.0379 694.745 32.2654 695.652 32.1704H695.939C695.814 40.7954 692.932 47.4579 689.479 52.4279C688.047 52.0729 687.817 50.9129 687.932 49.8704C685.815 50.1204 684.967 48.5891 685.26 47.1429C684.455 47.4304 682.717 47.0179 682.507 45.4879C682.297 43.9579 683.525 43.0516 685.307 43.0516ZM678.807 43.0341C679.127 43.0666 679.369 43.1154 679.084 43.4941C678.799 43.8729 678.724 43.8479 678.693 43.5779C678.662 43.3079 678.508 43.0004 678.818 43.0341H678.807ZM676.507 43.0004C676.8 42.9666 676.653 43.2804 676.632 43.5454C676.61 43.8104 676.528 43.8479 676.257 43.4666C675.985 43.0854 676.21 43.0354 676.534 43.0004H676.507ZM676.188 44.6004C676.648 44.3579 677.004 43.6504 677.085 43.1629C677.195 42.5404 677.332 42.2879 677.66 42.2654C677.989 42.2429 678.123 42.5404 678.23 43.1629C678.315 43.6629 678.67 44.3566 679.13 44.6004C679.42 44.7529 680.35 44.7754 680.16 45.3254C680.029 45.5791 679.86 46.0816 679.608 45.8554C679.355 45.6291 678.917 45.0404 678.752 45.0054C678.579 44.9754 678.605 45.2304 678.677 45.3179C678.772 45.4429 679.068 45.8554 679.239 46.0516C679.452 46.2929 679.512 46.7316 679.142 46.9079C678.772 47.0841 678.389 46.8579 678.398 46.6579C678.417 46.3554 678.229 45.5016 678.069 45.5016C677.942 45.5016 677.938 45.7191 677.944 45.9604C677.894 46.4604 678.232 46.8754 678.189 47.1354C678.147 47.3954 678.092 47.6566 677.649 47.6504C677.207 47.6441 677.149 47.4004 677.112 47.1354C677.065 46.8766 677.403 46.4729 677.352 45.9604C677.367 45.7204 677.36 45.5016 677.235 45.5016C677.073 45.5016 676.893 46.3554 676.904 46.6579C676.917 46.8554 676.535 47.0804 676.164 46.9079C675.793 46.7354 675.858 46.2929 676.07 46.0516C676.239 45.8566 676.535 45.4304 676.629 45.3179C676.699 45.2304 676.727 44.9766 676.554 45.0054C676.382 45.0341 675.95 45.6254 675.699 45.8554C675.448 46.0854 675.274 45.5804 675.145 45.3254C674.955 44.7754 675.895 44.7529 676.174 44.6004H676.188ZM675.497 52.7254C675.329 51.1079 676.304 50.0404 677.618 50.0404C678.932 50.0404 679.905 51.1079 679.739 52.7254C681.18 52.3129 683.087 53.0079 682.623 55.4916C684.268 54.9341 685.535 55.7954 685.615 57.1454C681.972 60.9416 678.54 63.0454 677.55 63.6266C676.545 63.0516 673.179 60.9791 669.604 57.2704C669.604 55.8479 670.917 54.9141 672.614 55.4916C672.148 53.0079 674.058 52.3141 675.497 52.7254ZM672.784 45.4754C672.572 47.0029 670.834 47.4179 670.03 47.1304C670.323 48.5766 669.48 50.1054 667.358 49.8579C667.478 50.9379 667.233 52.1579 665.668 52.4529C662.214 47.4779 659.33 40.7854 659.2 32.1654C659.213 32.1654 659.225 32.1604 659.238 32.1604H659.638C660.548 32.2604 661.878 33.0279 661.68 34.9029C662.993 34.8191 664.689 35.1091 664.435 37.6254C666.343 37.5441 667.445 38.2466 667.23 40.3979C668.855 40.2729 670.205 40.8916 669.99 43.0416C671.768 43.0404 672.997 43.9504 672.785 45.4766L672.784 45.4754ZM668.653 35.8466C668.615 36.1191 668.545 36.1504 668.258 35.7666C667.97 35.3829 668.218 35.3329 668.537 35.3004C668.837 35.2679 668.684 35.5779 668.653 35.8466ZM670.837 35.3291C671.155 35.3666 671.397 35.4166 671.112 35.7954C670.827 36.1741 670.753 36.1504 670.72 35.8791C670.688 35.6079 670.545 35.3016 670.837 35.3291ZM670.262 35.4541C670.349 35.9541 670.702 36.6454 671.164 36.8891C671.452 37.0441 672.384 37.0641 672.192 37.6104C672.063 37.8654 671.894 38.3691 671.639 38.1404C671.384 37.9116 670.952 37.3279 670.783 37.2929C670.614 37.2579 670.64 37.5254 670.712 37.6016C670.805 37.7179 671.087 38.1391 671.274 38.3516C671.484 38.6016 671.549 39.0354 671.179 39.2091C670.809 39.3829 670.429 39.1591 670.435 38.9591C670.45 38.6591 670.265 37.8016 670.105 37.8016C669.98 37.8016 669.974 38.0216 669.98 38.2691C669.925 38.7729 670.262 39.1741 670.22 39.4354C670.179 39.6966 670.124 39.9579 669.68 39.9516C669.237 39.9454 669.183 39.6941 669.14 39.4354C669.098 39.1766 669.438 38.7729 669.383 38.2691C669.403 38.0216 669.395 37.8016 669.258 37.8016C669.099 37.8016 668.914 38.6604 668.927 38.9591C668.939 39.1554 668.559 39.3804 668.177 39.2091C667.794 39.0379 667.868 38.5879 668.082 38.3516C668.249 38.1516 668.548 37.7304 668.642 37.6016C668.713 37.5266 668.738 37.2604 668.569 37.2929C668.4 37.3254 667.965 37.9129 667.71 38.1404C667.455 38.3679 667.285 37.8654 667.16 37.6104C666.968 37.0629 667.91 37.0454 668.185 36.8891C668.648 36.6466 668.998 35.9429 669.085 35.4541C669.194 34.8254 669.33 34.5791 669.655 34.5541C669.987 34.5479 670.118 34.8266 670.225 35.4541H670.262ZM717.424 40.2004C717.424 41.9779 716.207 43.1754 713.512 43.1754H708.458V32.1504H713.362C715.702 32.1504 716.954 33.2166 716.954 35.0329C716.954 36.3254 716.207 37.2241 715.027 37.5229C716.58 37.8416 717.422 38.8904 717.422 40.2004H717.424ZM711.5 36.7504H712.68C713.468 36.7504 713.955 36.4504 713.955 35.7004C713.955 34.9504 713.455 34.6504 712.68 34.6504H711.5V36.7504ZM711.5 40.6629H713.092C713.858 40.6629 714.289 40.3254 714.289 39.6904C714.289 39.0554 713.858 38.7154 713.092 38.7154H711.5V40.6629ZM723.405 41.5779C723.16 42.7204 722.28 43.4104 720.803 43.4104C719.23 43.4104 718.128 42.4379 718.128 40.4104V34.5254H721.159V39.7504C721.159 40.6254 721.402 41.1354 722.097 41.1354C722.884 41.1354 723.372 40.4229 723.372 39.0204V34.5254H726.375V43.1729H723.663L723.405 41.5779ZM729.475 40.2004C729.536 40.5148 729.707 40.7972 729.957 40.9963C730.208 41.1954 730.522 41.298 730.842 41.2854C731.384 41.2854 731.759 41.0979 731.759 40.7229C731.759 40.3479 731.442 40.1804 730.822 40.0479L729.659 39.8041C728.087 39.4666 727.263 38.6616 727.263 37.2391C727.263 35.1429 729.06 34.3191 730.988 34.3191C733.065 34.3191 734.319 35.1941 734.618 36.7904L731.868 37.2029C731.774 36.7029 731.475 36.4354 730.893 36.4354C730.463 36.4354 730.163 36.6416 730.163 36.9779C730.163 37.3141 730.405 37.4829 730.855 37.5591L732.015 37.7654C733.924 38.0841 734.728 39.1129 734.728 40.5729C734.728 42.6129 732.95 43.3979 730.815 43.3979C728.85 43.3979 727.54 42.6879 727.065 41.1516L729.475 40.2004ZM737.11 30.7816C738.01 30.7816 738.777 31.3991 738.777 32.3729C738.777 33.3466 738.009 33.9641 737.11 33.9641C736.212 33.9641 735.445 33.3466 735.445 32.3729C735.445 31.3991 736.213 30.7816 737.11 30.7816ZM738.625 34.5254V43.1729H735.625V34.5254H738.625ZM742.933 36.1929C743.383 34.9004 744.393 34.3204 745.683 34.3204C747.012 34.3204 748.21 35.1079 748.21 37.0916V43.1754H745.21V38.2504C745.21 37.3704 744.96 36.8279 744.182 36.8279C743.527 36.8279 742.965 37.2216 742.965 38.5504V43.1729H739.938V34.5254H742.653L742.933 36.1929ZM754.704 40.0504L757.213 40.8379C756.713 42.6904 755.19 43.4004 753.468 43.4004C750.905 43.4004 749.033 41.7729 749.033 38.9454C749.033 36.0254 750.679 34.3204 753.408 34.3204C755.97 34.3204 757.283 35.9679 757.283 38.3641L757.245 39.4516H751.95C752.008 40.5191 752.53 41.0979 753.43 41.0979C754.055 41.0979 754.498 40.8179 754.703 40.0516L754.704 40.0504ZM754.404 37.9154C754.404 37.1654 754.154 36.5104 753.299 36.5104C752.569 36.5104 752.102 37.1104 752.027 37.9154H754.404Z" fill="#838383"/>
<path d="M760.038 40.2006C760.098 40.515 760.269 40.7974 760.52 40.9965C760.77 41.1956 761.084 41.2982 761.404 41.2856C761.947 41.2856 762.322 41.0981 762.322 40.7231C762.322 40.3481 762.004 40.1806 761.387 40.0481L760.224 39.8043C758.652 39.4668 757.829 38.6618 757.829 37.2393C757.829 35.1431 759.625 34.3193 761.554 34.3193C763.633 34.3193 764.887 35.1818 765.185 36.7906L762.433 37.2031C762.339 36.7031 762.04 36.4356 761.458 36.4356C761.028 36.4356 760.728 36.6418 760.728 36.9781C760.728 37.3143 760.97 37.4831 761.42 37.5593L762.583 37.7656C764.492 38.0843 765.295 39.1131 765.295 40.5731C765.295 42.6131 763.517 43.3981 761.383 43.3981C759.418 43.3981 758.108 42.6881 757.633 41.1518L760.038 40.2006Z" fill="#838383"/>
<path d="M768.051 40.2002C768.111 40.5147 768.282 40.7971 768.532 40.9962C768.783 41.1953 769.097 41.2978 769.417 41.2852C769.959 41.2852 770.335 41.0977 770.335 40.7227C770.335 40.3477 770.017 40.1802 769.398 40.0477L768.238 39.804C766.665 39.4665 765.84 38.6615 765.84 37.239C765.84 35.1427 767.638 34.319 769.565 34.319C771.643 34.319 772.897 35.194 773.197 36.7902L770.443 37.2027C770.35 36.7027 770.05 36.4352 769.47 36.4352C769.04 36.4352 768.74 36.6415 768.74 36.9777C768.74 37.314 768.983 37.4827 769.433 37.559L770.593 37.7652C772.503 38.084 773.308 39.1127 773.308 40.5727C773.308 42.6127 771.529 43.3977 769.395 43.3977C767.43 43.3977 766.12 42.6877 765.645 41.1515L768.051 40.2002ZM714.633 56.5227C714.279 56.2227 714.148 55.8102 714.017 55.2877L713.679 53.9215C713.492 53.134 713.174 52.984 712.462 52.984H711.508V56.5215H708.458V45.5002H713.174C715.644 45.5002 717.349 46.454 717.349 48.9627C717.349 50.704 716.224 51.5652 715.009 51.7702C716.019 51.9765 716.526 52.424 716.788 53.3802L717.313 55.2702C717.444 55.7702 717.593 56.1452 717.988 56.5252L714.633 56.5227ZM711.508 50.5152H712.688C713.754 50.5152 714.223 50.0827 714.223 49.2977C714.223 48.5127 713.754 48.0802 712.688 48.0802H711.508V50.5152ZM723.468 53.3977L725.976 54.1852C725.476 56.039 723.953 56.7477 722.232 56.7477C719.667 56.7477 717.794 55.119 717.794 52.294C717.794 49.374 719.442 47.669 722.169 47.669C724.732 47.669 726.044 49.3165 726.044 51.7115L726.007 52.799H720.732C720.788 53.864 721.312 54.444 722.211 54.444C722.846 54.444 723.277 54.1652 723.483 53.3977H723.468ZM723.168 51.2502C723.168 50.5027 722.918 49.8477 722.064 49.8477C721.334 49.8477 720.867 50.4477 720.792 51.2502H723.168ZM725.808 47.8752H729.001L729.993 51.3565L730.556 53.4727H730.593C730.593 53.4727 730.781 52.5977 731.174 51.3565L732.297 47.8752H735.234L732.091 56.5215H728.834L725.808 47.8752ZM737.373 44.134C738.273 44.134 739.041 44.7515 739.041 45.7252C739.041 46.699 738.272 47.3152 737.373 47.3152C736.474 47.3152 735.708 46.699 735.708 45.7252C735.708 44.7515 736.476 44.134 737.373 44.134ZM738.876 47.8752V56.5215H735.875V47.8752H738.876ZM745.484 53.3977L747.992 54.1852C747.492 56.039 745.971 56.7477 744.249 56.7477C741.687 56.7477 739.814 55.119 739.814 52.294C739.814 49.374 741.462 47.669 744.189 47.669C746.752 47.669 748.064 49.3165 748.064 51.7115L748.027 52.799H742.75C742.807 53.864 743.329 54.444 744.228 54.444C744.853 54.444 745.297 54.1652 745.503 53.3977H745.484ZM745.198 51.2502C745.198 50.5027 744.948 49.8477 744.094 49.8477C743.363 49.8477 742.894 50.4477 742.822 51.2502H745.198ZM756.148 47.8752L756.766 50.8752L757.265 53.5902H757.303L757.846 50.9127L758.538 47.8627H761.475L759.138 56.509H755.763L755.238 53.9815L754.769 51.2115H754.732L754.264 53.9815L753.739 56.509H750.37L748.004 47.8752H751.054L751.747 50.9252L752.289 53.6027H752.327L752.827 50.8877L753.445 47.8877L756.148 47.8752ZM726.801 26.9752C726.801 27.3877 726.926 27.6002 727.232 27.6002C727.419 27.6002 727.607 27.5252 727.774 27.4315V29.5665C727.362 29.8665 726.971 29.979 726.277 29.979C725.117 29.979 724.481 29.454 724.142 28.6115C723.642 29.5115 722.887 30.0165 721.642 30.0165C720.052 30.0165 719.058 29.079 719.058 27.6015C719.058 25.7477 720.387 24.814 722.988 24.814H723.868V24.234C723.868 23.6715 723.681 23.279 723.138 23.279C722.613 23.279 722.372 23.5977 722.334 24.309L719.451 23.859C719.619 22.0802 721.006 20.959 723.232 20.959C725.703 20.959 726.788 22.0465 726.788 23.9365L726.801 26.9752ZM723.881 26.3577H723.501C722.413 26.3577 722.038 26.6952 722.038 27.2577C722.038 27.6702 722.318 27.9877 722.843 27.9877C723.348 27.9877 723.891 27.7377 723.891 26.9215L723.881 26.3577ZM734.158 24.5802C733.802 24.449 733.596 24.3552 733.108 24.3552C732.396 24.3552 731.537 24.6352 731.537 26.1715V29.8215H728.521V21.1715H731.104L731.404 23.3065C731.647 21.864 732.864 21.1715 734.342 21.1715L734.158 24.5802Z" fill="#838383"/>
<path d="M734.626 21.1729H737.809L738.801 24.6554L739.363 26.7704H739.401C739.401 26.7704 739.588 25.8954 739.981 24.6554L741.103 21.1729H744.041L740.896 29.8229H737.651L734.626 21.1729ZM751.316 26.9754C751.316 27.3879 751.441 27.6004 751.747 27.6004C751.939 27.5904 752.125 27.5324 752.289 27.4317V29.5667C751.877 29.8667 751.484 29.9792 750.792 29.9792C749.632 29.9792 748.996 29.4542 748.658 28.6117C748.158 29.5117 747.404 30.0167 746.158 30.0167C744.567 30.0167 743.574 29.0792 743.574 27.6017C743.574 25.7479 744.902 24.8142 747.504 24.8142H748.384V24.2342C748.384 23.6717 748.197 23.2792 747.654 23.2792C747.129 23.2792 746.887 23.5979 746.849 24.3092L743.967 23.8592C744.134 22.0804 745.521 20.9592 747.748 20.9592C750.219 20.9592 751.304 22.0467 751.304 23.9367L751.316 26.9754ZM748.396 26.3579H748.001C746.916 26.3579 746.542 26.6954 746.542 27.2579C746.542 27.6704 746.822 27.9879 747.347 27.9879C747.853 27.9879 748.397 27.7379 748.397 26.9217L748.396 26.3579ZM758.671 24.5804C758.314 24.4492 758.111 24.3554 757.621 24.3554C756.911 24.3554 756.049 24.6354 756.049 26.1717V29.8217H753.049V21.1717H755.633L755.933 23.3067C756.177 21.8642 757.396 21.1717 758.873 21.1717L758.671 24.5804ZM765.238 18.2529H768.272V29.8217H765.538L765.258 28.3242C764.939 29.4842 763.908 30.0467 762.599 30.0467C760.578 30.0467 759.137 28.4742 759.137 25.6654C759.137 22.7654 760.512 20.9654 762.956 20.9654C764.062 20.9654 764.939 21.4704 765.238 22.2942V18.2529ZM765.258 24.8779C765.258 23.7742 764.714 23.1754 763.836 23.1754C762.957 23.1754 762.207 23.8304 762.207 25.5529C762.207 26.9754 762.807 27.7242 763.797 27.7242C764.566 27.7242 765.259 27.1442 765.259 25.9654L765.258 24.8779ZM708.458 29.8229V18.7979H711.528V22.8979H715.309V18.7979H718.379V29.8229H715.309V25.5542H711.526V29.8229H708.458Z" fill="#838383"/>
<g clip-path="url(#clip3_25497_5819)">
<path d="M910 23H880V53H910V23Z" fill="#838383"/>
<path d="M894 39.9998L888.8 30.2998H891.2L894.2 36.3998C894.2 36.4998 894.3 36.5998 894.4 36.6998C894.5 36.7998 894.5 36.8998 894.6 37.0998L894.7 37.1998V37.2998C894.8 37.4998 894.8 37.5998 894.9 37.7998C895 37.8998 895 38.0998 895.1 38.1998C895.2 37.8998 895.4 37.6998 895.5 37.2998C895.6 36.9998 895.8 36.6998 896 36.3998L899 30.2998H901.2L896 40.0998V46.2998H894V39.9998Z" fill="white"/>
<path d="M923.7 28.7998C925.2 28.7998 926.5 29.1998 927.5 29.9998L926.5 31.1998C925.6 30.5998 924.7 30.1998 923.6 30.1998C921.9 30.1998 920.6 31.0998 919.9 32.7998C919.5 33.7998 919.3 35.0998 919.3 36.7998C919.3 38.0998 919.5 39.1998 919.8 39.9998C920.6 41.8998 921.9 42.7998 923.9 42.7998C925 42.7998 926 42.4998 926.9 41.7998L927.9 43.0998C926.6 43.8998 925.2 44.2998 923.7 44.2998C921.9 44.2998 920.4 43.5998 919.2 42.0998C918 40.6998 917.5 38.7998 917.5 36.4998C917.5 34.1998 918.1 32.3998 919.3 30.8998C920.4 29.5998 921.9 28.7998 923.7 28.7998Z" fill="#838383"/>
<path d="M929.4 38.7004C929.4 36.9004 929.8 35.5004 930.7 34.5004C931.6 33.5004 932.7 32.9004 934.1 32.9004C935.7 32.9004 937 33.5004 937.9 34.8004C938.6 35.8004 938.9 37.2004 938.9 38.9004C938.9 40.9004 938.3 42.5004 937.2 43.5004C936.4 44.2004 935.4 44.6004 934.2 44.6004C932.7 44.6004 931.6 44.1004 930.7 43.0004C929.8 42.0004 929.4 40.5004 929.4 38.7004ZM936.4 35.8004C935.9 34.9004 935.2 34.4004 934.1 34.4004C933 34.4004 932.3 34.8004 931.8 35.6004C931.4 36.2004 931.3 37.2004 931.3 38.5004C931.3 40.2004 931.5 41.4004 932 42.1004C932.5 42.8004 933.2 43.2004 934.2 43.2004C935.4 43.2004 936.2 42.6004 936.6 41.5004C936.8 40.9004 936.9 40.1004 936.9 39.1004C937 37.6004 936.8 36.5004 936.4 35.8004Z" fill="#838383"/>
</g>
<defs>
<clipPath id="clip0_25497_5819">
<rect width="150" height="17.5392" fill="white" transform="translate(0 29)"/>
</clipPath>
<clipPath id="clip1_25497_5819">
<rect width="150" height="27.6959" fill="white" transform="translate(240 24)"/>
</clipPath>
<clipPath id="clip2_25497_5819">
<rect width="70" height="35" fill="white" transform="translate(480 20)"/>
</clipPath>
<clipPath id="clip3_25497_5819">
<rect width="145" height="30" fill="white" transform="translate(880 23)"/>
</clipPath>
</defs>
</svg>
