<svg width="24" height="30" viewBox="0 0 24 30" fill="none" xmlns="http://www.w3.org/2000/svg">
<g id="apple 1" clip-path="url(#clip0_25368_9095)">
<path id="Vector" d="M13.2421 2.56287C15.1764 0.0134057 17.8655 0.000976562 17.8655 0.000976562C17.8655 0.000976562 18.2655 2.39791 16.3439 4.70691C14.2921 7.17242 11.9599 6.76898 11.9599 6.76898C11.9599 6.76898 11.522 4.82995 13.2421 2.56287ZM12.2059 8.44802C13.201 8.44802 15.0479 7.08014 17.4518 7.08014C21.5898 7.08014 23.2176 10.0246 23.2176 10.0246C23.2176 10.0246 20.0338 11.6524 20.0338 15.6022C20.0338 20.058 24 21.5936 24 21.5936C24 21.5936 21.2275 29.3972 17.4826 29.3972C15.7626 29.3972 14.4254 28.2381 12.6131 28.2381C10.7663 28.2381 8.93352 29.4404 7.73984 29.4404C4.3202 29.4405 0 22.038 0 16.0876C0 10.2333 3.65677 7.16217 7.08666 7.16217C9.3164 7.16217 11.0467 8.44802 12.2059 8.44802Z" fill="white"/>
</g>
<defs>
<clipPath id="clip0_25368_9095">
<rect width="24" height="29.4406" fill="white"/>
</clipPath>
</defs>
</svg>
