<svg width="150" height="75" viewBox="0 0 150 75" fill="none" xmlns="http://www.w3.org/2000/svg">
<g id="hbr-ar21">
<g id="Group">
<path id="Vector" d="M17.9566 15.9941V29.6541L57.2066 29.6529V15.9941H17.9566ZM51.8003 19.6754L52.1679 19.6829C52.2404 19.6854 52.2991 19.7491 52.2991 19.8079V25.8991L51.7991 25.4691C51.8203 25.4316 51.8366 25.3941 51.8366 25.3441V19.7729C51.8304 19.7404 51.8216 19.7154 51.8116 19.6916L51.8003 19.6754ZM52.1478 26.0004H49.0504C49.0363 25.9171 49.0045 25.8378 48.957 25.7679C48.9096 25.698 48.8476 25.6392 48.7754 25.5954H51.5604C51.5901 25.597 51.6198 25.591 51.6466 25.5779L52.1478 26.0004ZM45.4641 19.7679C45.5392 19.7147 45.6264 19.6811 45.7179 19.6704C45.7454 19.6704 45.7803 19.6654 45.8116 19.6654H45.8391C46.4016 19.6654 47.0703 19.7066 47.5891 19.9004C48.1078 20.0941 48.4566 20.4166 48.4578 21.0254H48.6453C48.6491 20.4279 48.9978 20.1129 49.5178 19.9004C50.0178 19.7054 50.7053 19.6654 51.2616 19.6654H51.3241C51.3516 19.6654 51.3741 19.6704 51.3991 19.6704C51.4539 19.679 51.5075 19.6937 51.5591 19.7141C51.5929 19.7316 51.6179 19.7479 51.6316 19.7579L51.6391 25.3291C51.6391 25.3754 51.6016 25.4104 51.5641 25.4104H45.5391C45.4979 25.4104 45.4641 25.3729 45.4641 25.3291V19.7666V19.7679ZM45.5391 25.5966H48.1666C48.0241 25.6841 47.9203 25.8466 47.8916 26.0016H44.9253C44.9128 26.0016 44.9054 25.9991 44.8929 25.9991L45.4103 25.5616C45.4503 25.5841 45.4941 25.5991 45.5391 25.5991V25.5966ZM44.8054 19.7966C44.8054 19.7504 44.8591 19.6879 44.9328 19.6716L45.3041 19.6641C45.2894 19.6894 45.2805 19.7176 45.2779 19.7466V25.3179C45.2779 25.3479 45.2829 25.3779 45.2929 25.4029L44.7929 25.8191V19.7816L44.8054 19.7966ZM41.2766 19.6941C41.3454 19.6941 41.4066 19.7654 41.4066 19.8191V25.8691L40.9091 25.4516C40.9234 25.4211 40.9311 25.3879 40.9316 25.3541V19.7791C40.9254 19.7466 40.9166 19.7266 40.9066 19.7041L41.2754 19.7054L41.2766 19.6941ZM41.2966 26.0141H38.1566C38.1451 25.9313 38.1161 25.8519 38.0715 25.7812C38.0269 25.7105 37.9677 25.6501 37.8979 25.6041H40.6691C40.7066 25.6041 40.7441 25.5941 40.7941 25.5791L41.2966 26.0141ZM37.7466 20.8366C37.7504 20.3141 38.0241 20.0366 38.4279 19.8704C38.8316 19.7041 39.3554 19.6654 39.7929 19.6654L40.4929 19.6779C40.5515 19.6852 40.6085 19.7021 40.6616 19.7279C40.6916 19.7404 40.7216 19.7604 40.7366 19.7729L40.7429 19.7779V25.3454C40.7429 25.3866 40.7091 25.4166 40.6703 25.4166H37.7479L37.7466 20.8366ZM34.5679 19.7766C34.5828 19.7679 34.6266 19.7354 34.6779 19.7141C34.7266 19.697 34.7775 19.6865 34.8291 19.6829L35.5416 19.6641C35.9741 19.6641 36.4966 19.7016 36.8966 19.8691C37.2929 20.0441 37.5616 20.3141 37.5628 20.8354V25.4141H34.6503C34.6041 25.4141 34.5704 25.3841 34.5704 25.3429V19.7754L34.5679 19.7766ZM34.6479 25.6016H37.2578C37.1876 25.6474 37.1279 25.7076 37.0828 25.7784C37.0378 25.8491 37.0084 25.9286 36.9966 26.0116H34.0291C34.0166 26.0116 34.0041 26.0116 33.9891 26.0054L34.5141 25.5654C34.5516 25.5904 34.5966 25.6016 34.6479 25.6016ZM33.9078 19.8054C33.9078 19.7654 33.9654 19.6804 34.0391 19.6804L34.4078 19.6791C34.3953 19.7016 34.3866 19.7229 34.3829 19.7541V25.3291C34.3843 25.3563 34.3906 25.383 34.4016 25.4079L33.9091 25.8241L33.9078 19.8054ZM30.0116 19.6804L30.3791 19.6816C30.4479 19.6816 30.5104 19.7529 30.5104 19.8066V25.8716L30.0104 25.4466C30.0229 25.4141 30.0328 25.3791 30.0328 25.3416V19.7666C30.0316 19.7354 30.0229 19.7141 30.0104 19.6916L30.0116 19.6804ZM30.3941 26.0016H27.2604C27.2484 25.9193 27.2195 25.8403 27.1754 25.7697C27.1312 25.6991 27.0729 25.6385 27.0041 25.5916H29.7716C29.8091 25.5916 29.8491 25.5854 29.8816 25.5716L30.3941 26.0016ZM26.8541 20.8241C26.8579 20.3016 27.1291 20.0241 27.5316 19.8579C27.9341 19.6916 28.4616 19.6529 28.9016 19.6529L29.5966 19.6654C29.6141 19.6654 29.7004 19.6829 29.7654 19.7154C29.7926 19.7271 29.8182 19.7422 29.8416 19.7604L29.8479 19.7654V25.3329C29.8479 25.3741 29.8141 25.4041 29.7704 25.4041H26.8504L26.8541 20.8241ZM23.6716 19.7641C23.6866 19.7554 23.7316 19.7229 23.7966 19.7016C23.8452 19.6853 23.8955 19.6749 23.9466 19.6704L24.6566 19.6516C25.0904 19.6516 25.6091 19.6891 26.0091 19.8566C26.4066 20.0316 26.6754 20.3016 26.6804 20.8229L26.6791 25.4016H23.7504C23.7066 25.4016 23.6704 25.3716 23.6704 25.3304L23.6716 19.7641ZM23.7504 25.6004H26.3754C26.2329 25.6941 26.1416 25.8404 26.1154 26.0104H23.1254C23.1004 26.0104 23.0841 26.0104 23.0716 26.0016L23.5929 25.5566C23.6341 25.5841 23.6878 25.6004 23.7391 25.6004H23.7504ZM23.0004 19.8041C23.0004 19.7641 23.0579 19.6791 23.1291 19.6791L23.4941 19.6779C23.4816 19.7004 23.4766 19.7179 23.4716 19.7529V25.3279C23.4716 25.3491 23.4766 25.3691 23.4841 25.3954L23.0004 25.8054V19.8041ZM22.3454 26.4591C22.2479 26.4591 22.1741 26.3779 22.1741 26.2841V25.3716C21.9179 25.3391 21.7191 25.1791 21.7191 24.9904C21.7191 24.8016 21.9191 24.6404 22.1741 24.6066V21.6629C21.9179 21.6254 21.7191 21.4704 21.7191 21.2816C21.7191 21.0929 21.9191 20.9366 22.1741 20.8991V19.7316C22.1741 19.6366 22.2491 19.5629 22.3454 19.5629L22.8554 19.6629C22.8304 19.7004 22.8141 19.7504 22.8129 19.8029V25.9104C22.8141 26.0791 22.9591 26.1979 23.1228 26.1979H26.0904C26.1054 26.2954 26.1466 26.3829 26.2054 26.4579L22.3454 26.4591ZM26.8391 26.4591H26.4953C26.4267 26.4253 26.3688 26.3729 26.3282 26.308C26.2876 26.2431 26.2658 26.1682 26.2653 26.0916C26.2653 25.9852 26.3076 25.8832 26.3829 25.8079C26.4581 25.7327 26.5602 25.6904 26.6666 25.6904C26.773 25.6904 26.8751 25.7327 26.9503 25.8079C27.0256 25.8832 27.0679 25.9852 27.0679 26.0916C27.0679 26.2541 26.9741 26.3916 26.8378 26.4591H26.8391ZM31.5716 24.9916C31.5716 25.1791 31.3741 25.3341 31.1191 25.3729V26.2854C31.1191 26.3766 31.0441 26.4604 30.9478 26.4604H27.1254C27.1831 26.3829 27.2232 26.2937 27.2429 26.1991H30.3729C30.5316 26.1991 30.6766 26.0804 30.6766 25.9116V19.8041C30.6766 19.7341 30.6516 19.6741 30.6141 19.6266L30.9466 19.5641C31.0429 19.5641 31.1178 19.6391 31.1178 19.7329V20.9016C31.3741 20.9391 31.5704 21.0916 31.5704 21.2829C31.5704 21.4741 31.3728 21.6266 31.1178 21.6641V24.6079C31.3753 24.6454 31.5716 24.8054 31.5716 24.9916ZM33.2341 26.4591C33.1404 26.4591 33.0666 26.3779 33.0666 26.2841V25.3716C32.8166 25.3391 32.6091 25.1791 32.6091 24.9904C32.6091 24.8016 32.8041 24.6404 33.0666 24.6066V21.6629C32.8166 21.6254 32.6091 21.4704 32.6091 21.2816C32.6091 21.0929 32.8041 20.9366 33.0666 20.8991V19.7316C33.0666 19.6366 33.1391 19.5629 33.2341 19.5629L33.7341 19.6629C33.7091 19.7029 33.6966 19.7504 33.6966 19.8029V25.9104C33.6966 26.0791 33.8391 26.1979 34.0028 26.1979H36.9716C36.989 26.2924 37.0284 26.3814 37.0866 26.4579L33.2341 26.4591ZM37.7304 26.4591H37.3841C37.2541 26.3916 37.1566 26.2554 37.1566 26.0916C37.1566 25.8741 37.3378 25.6941 37.5616 25.6941C37.6675 25.6938 37.7692 25.7355 37.8444 25.81C37.9196 25.8845 37.9622 25.9858 37.9628 26.0916C37.9641 26.2541 37.8654 26.3916 37.7304 26.4591ZM42.4629 24.9916C42.4629 25.1791 42.2704 25.3341 42.0129 25.3729V26.2854C42.0125 26.3312 41.9943 26.375 41.962 26.4075C41.9298 26.4399 41.8861 26.4585 41.8404 26.4591H38.0216C38.0788 26.3817 38.1181 26.2924 38.1366 26.1979H41.2641C41.4266 26.1979 41.5741 26.0791 41.5741 25.9104V19.8029C41.5741 19.7329 41.5491 19.6729 41.5091 19.6254L41.8416 19.5629C41.9391 19.5629 42.0141 19.6379 42.0141 19.7316V20.9004C42.2716 20.9379 42.4641 21.0904 42.4641 21.2816C42.4641 21.4729 42.2716 21.6254 42.0141 21.6629V24.6066C42.2716 24.6441 42.4641 24.8041 42.4641 24.9904L42.4629 24.9916ZM44.1291 26.4591C44.0416 26.4591 43.9604 26.3779 43.9604 26.2841V25.3716C43.7104 25.3391 43.5066 25.1791 43.5066 24.9904C43.5066 24.8016 43.7003 24.6404 43.9604 24.6066V21.6629C43.7104 21.6254 43.5066 21.4704 43.5066 21.2816C43.5066 21.0929 43.7003 20.9366 43.9604 20.8991V19.7316C43.9604 19.6366 44.0391 19.5629 44.1291 19.5629L44.6354 19.6629C44.6144 19.7032 44.6024 19.7475 44.6004 19.7929V25.9004C44.6041 26.0654 44.7453 26.1829 44.9078 26.1829H47.8753C47.8928 26.2854 47.9378 26.3754 47.9966 26.4579L44.1291 26.4591ZM48.6266 26.4591H48.2828C48.1578 26.3916 48.0541 26.2554 48.0541 26.0916C48.0548 25.9864 48.0968 25.8857 48.1712 25.8113C48.2457 25.7369 48.3464 25.6948 48.4516 25.6941C48.6766 25.6941 48.8578 25.8741 48.8578 26.0916C48.8578 26.2541 48.7591 26.3916 48.6266 26.4591ZM53.3603 24.9916C53.3603 25.1791 53.1641 25.3416 52.9016 25.3729V26.2854C52.9016 26.3766 52.8291 26.4604 52.7353 26.4604H48.9129C48.975 26.3801 49.0163 26.2856 49.0329 26.1854H52.1553C52.3203 26.1854 52.4678 26.0679 52.4678 25.8979V19.7941C52.4678 19.7291 52.4454 19.6741 52.4128 19.6266L52.7353 19.5641C52.8291 19.5641 52.9016 19.6391 52.9016 19.7329V20.9004C53.1516 20.9379 53.3603 21.0904 53.3603 21.2829C53.3603 21.4754 53.1641 21.6266 52.9016 21.6641V24.6079C53.1516 24.6454 53.3603 24.8054 53.3603 24.9916ZM28.3653 23.9416C28.1728 23.9416 28.1191 23.8941 28.1191 23.7166V22.7391C28.4091 22.7391 28.5591 22.8579 28.5966 23.3641H28.6691V22.0004H28.5966C28.5491 22.5004 28.4016 22.6079 28.1191 22.6029V21.6654C28.1191 21.4904 28.1691 21.4779 28.3316 21.4779C28.7279 21.4779 28.9366 21.5779 29.0016 22.1529H29.0741V21.3379H27.3791V21.4416C27.5041 21.4541 27.6291 21.4604 27.6291 21.7291V23.6879C27.6291 23.9304 27.5379 23.9466 27.3791 23.9691V24.0716H29.1016L29.2204 23.2279H29.1354C28.9504 23.8529 28.6554 23.9454 28.3641 23.9454L28.3653 23.9416ZM49.9753 23.8591C50.0666 23.8591 50.1966 23.9841 50.4791 23.9841C51.0166 23.9841 51.2066 23.4941 51.2066 23.1341C51.2066 22.6966 50.9854 22.4616 50.8816 22.3841L50.4541 22.0904C50.2041 21.9216 50.1503 21.8329 50.1503 21.6154C50.1503 21.3654 50.3128 21.2316 50.4628 21.2316C50.8128 21.2316 50.9879 21.6941 51.0429 21.9754H51.1228V21.1004H51.0391C51.0216 21.1816 51.0079 21.2416 50.9391 21.2416C50.8566 21.2416 50.7179 21.1066 50.4829 21.1066C49.9229 21.1066 49.8329 21.6566 49.8329 21.9066C49.8329 22.0941 49.8329 22.4391 50.3366 22.7816L50.5341 22.9066C50.7216 23.0291 50.8591 23.1279 50.8591 23.4066C50.8591 23.4654 50.8503 23.8654 50.4841 23.8654C50.1091 23.8654 49.9379 23.4029 49.8778 22.9979H49.7928V23.9979H49.8778C49.8929 23.9316 49.9028 23.8729 49.9654 23.8729L49.9753 23.8591ZM24.3004 21.6654L25.0504 24.0866H25.1291L25.7991 21.7166C25.8679 21.4916 25.9041 21.4104 26.0641 21.3854V21.2829H25.4391V21.3854C25.6079 21.3979 25.6929 21.4104 25.6929 21.5679C25.6929 21.6504 25.6604 21.7554 25.6354 21.8491L25.2604 23.1741L24.8791 21.8991C24.8516 21.7991 24.7879 21.6266 24.7879 21.5491C24.7879 21.3991 24.8579 21.3991 25.0441 21.3829V21.2804H24.0441V21.3829C24.1691 21.4079 24.2154 21.4204 24.2903 21.6629L24.3004 21.6654ZM36.0216 23.8904C35.8316 23.8529 35.7653 23.8404 35.7653 23.5204V22.7279H35.8441L36.4541 23.9954H37.0541V23.8904C37.0166 23.8904 36.9728 23.8891 36.9328 23.8154L36.3416 22.6654C36.4991 22.5929 36.8016 22.4704 36.8016 21.9704C36.8016 21.2916 36.1816 21.2604 35.9766 21.2604H35.0303V21.3679C35.1979 21.3804 35.2903 21.3879 35.2903 21.7329V23.5204C35.2903 23.8454 35.2278 23.8579 35.0303 23.8904V23.9954H36.0216V23.8904ZM35.7653 21.5704C35.7778 21.4416 35.7854 21.3991 35.9503 21.3991C36.1841 21.3991 36.3041 21.5741 36.3041 21.9816C36.3041 22.5029 36.1541 22.6066 35.7666 22.5966L35.7653 21.5704ZM46.3116 21.3929V23.5179C46.3116 23.8554 46.2441 23.8679 46.0266 23.8879V23.9929H47.0791V23.8754C46.8578 23.8554 46.7879 23.8466 46.7879 23.5054V21.3804C46.9904 21.3891 47.2941 21.4179 47.3504 22.0641H47.4379L47.4341 21.2391H45.6679L45.6616 22.0541H45.7491C45.8041 21.4041 46.1041 21.3791 46.3116 21.3704V21.3929ZM48.0991 23.8866C47.9991 23.8779 47.8566 23.8666 47.8566 23.7141C47.8566 23.6454 47.9066 23.4791 47.9903 23.1854H48.6503C48.6878 23.3154 48.7791 23.6166 48.7791 23.7266C48.7791 23.8604 48.7291 23.8666 48.5491 23.8866V23.9816H49.4991V23.8754C49.3591 23.8841 49.3116 23.7429 49.1791 23.3129L48.5266 21.1879H48.4454L47.7954 23.4004C47.7041 23.7054 47.6641 23.8441 47.5054 23.8754V23.9704H48.1016L48.0991 23.8866ZM48.3078 22.0529L48.6028 23.0316H48.0303L48.3078 22.0529ZM38.6828 21.3679C38.8078 21.3766 38.9553 21.3854 38.9553 21.6479V23.6016C38.9553 23.8516 38.8403 23.8691 38.6828 23.8891V23.9941H39.7129V23.8891C39.5504 23.8766 39.4328 23.8604 39.4328 23.6016V21.6516C39.4328 21.3816 39.5729 21.3766 39.7129 21.3716V21.2504H38.6828V21.3679ZM44.6628 30.9179C44.9123 31.3003 45.0799 31.7301 45.1554 32.1804C45.3679 33.4516 44.7478 34.7954 42.4241 34.9304C42.3866 36.8354 41.9178 37.6141 39.5016 37.6554C39.7103 39.6829 38.6516 40.3429 37.5103 40.3429C36.3691 40.3429 35.3041 39.6841 35.5141 37.6554C33.0978 37.6116 32.6316 36.8329 32.5891 34.9304C30.2641 34.8091 29.6479 33.4654 29.8641 32.1804C29.9341 31.7279 30.1091 31.2891 30.3541 30.9304H17.9541V31.5604C17.9754 54.8754 37.2341 64.9004 37.2916 64.9316L37.5828 65.0879L37.8791 64.9316C37.9366 64.9004 57.1978 54.8629 57.2166 31.5604V30.9304L44.6628 30.9179ZM28.5754 52.3004C29.0379 52.0579 29.3916 51.3466 29.4754 50.8629C29.6004 50.2379 29.7179 49.9879 30.0504 49.9654C30.3829 49.9429 30.5129 50.2379 30.6253 50.8629C30.7079 51.3466 31.0604 52.0566 31.5229 52.3004C31.8104 52.4529 32.7404 52.4754 32.5516 53.0204C32.4229 53.2679 32.2516 53.7754 32.0016 53.5504C31.7516 53.3254 31.3116 52.7379 31.1266 52.7004C30.9591 52.6716 30.9829 52.9254 31.0541 53.0129C31.1516 53.1229 31.4454 53.5504 31.6129 53.7466C31.8254 53.9866 31.8904 54.4279 31.5191 54.6016C31.1479 54.7754 30.7691 54.5541 30.7779 54.3554C30.7903 54.0554 30.6116 53.1991 30.4491 53.1991C30.3203 53.1991 30.3154 53.4241 30.3291 53.6641C30.2791 54.1691 30.6166 54.5729 30.5791 54.8329C30.5328 55.0854 30.4791 55.3541 30.0366 55.3491C29.5916 55.3366 29.5366 55.0991 29.4941 54.8329C29.4528 54.5829 29.7941 54.1679 29.7391 53.6641C29.7541 53.4229 29.7491 53.1991 29.6203 53.1991C29.4628 53.1991 29.2754 54.0566 29.2954 54.3554C29.3029 54.5554 28.9204 54.7766 28.5504 54.6016C28.1804 54.4266 28.2454 53.9854 28.4541 53.7466C28.6229 53.5491 28.9204 53.1241 29.0166 53.0129C29.0854 52.9254 29.1141 52.6716 28.9441 52.7004C28.7729 52.7379 28.3391 53.3229 28.0841 53.5504C27.8291 53.7779 27.6616 53.2679 27.5341 53.0204C27.3466 52.4766 28.2741 52.4529 28.5629 52.3004H28.5754ZM28.8929 50.7004C29.1891 50.6666 29.0404 50.9754 29.0091 51.2504C28.9779 51.5254 28.9041 51.5504 28.6178 51.1654C28.3316 50.7804 28.5716 50.7366 28.8929 50.7029V50.7004ZM31.1929 50.7279C31.5116 50.7704 31.7554 50.8154 31.4678 51.1904C31.1804 51.5754 31.1079 51.5454 31.0754 51.2779C31.0429 51.0104 30.8941 50.6979 31.1929 50.7254V50.7279ZM44.8929 53.1991C44.7341 53.1991 44.5553 54.0566 44.5679 54.3554C44.5753 54.5554 44.1978 54.7766 43.8241 54.6016C43.4503 54.4266 43.5204 53.9854 43.7304 53.7466C43.9004 53.5491 44.1991 53.1241 44.2928 53.0129C44.3603 52.9254 44.3866 52.6716 44.2179 52.7004C44.0491 52.7379 43.6116 53.3229 43.3428 53.5504C43.0741 53.7779 42.9216 53.2679 42.7929 53.0204C42.6004 52.4779 43.5329 52.4529 43.8179 52.3004C44.2804 52.0579 44.6341 51.3466 44.7178 50.8629C44.8266 50.2379 44.9679 49.9879 45.2929 49.9654C45.6179 49.9429 45.7504 50.2379 45.8679 50.8629C45.9491 51.3466 46.3054 52.0566 46.7679 52.3004C47.0554 52.4529 47.9841 52.4754 47.7966 53.0204C47.6653 53.2679 47.4966 53.7754 47.2428 53.5504C46.9891 53.3254 46.5553 52.7379 46.3841 52.7004C46.2178 52.6716 46.2416 52.9254 46.3116 53.0129C46.4116 53.1229 46.7066 53.5504 46.8766 53.7466C47.0891 53.9866 47.1516 54.4279 46.7766 54.6016C46.4016 54.7754 46.0266 54.5541 46.0366 54.3554C46.0491 54.0554 45.8679 53.1991 45.7079 53.1991C45.5779 53.1991 45.5829 53.4241 45.5891 53.6641C45.5341 54.1691 45.8766 54.5729 45.8316 54.8329C45.7904 55.0854 45.7354 55.3541 45.2941 55.3491C44.8466 55.3366 44.7941 55.0991 44.7491 54.8329C44.7066 54.5829 45.0466 54.1679 44.9941 53.6641C45.0116 53.4229 45.0091 53.1991 44.8754 53.1991H44.8929ZM44.1516 50.6991C44.4516 50.6654 44.2979 50.9741 44.2704 51.2491C44.2429 51.5241 44.1629 51.5491 43.8791 51.1641C43.5954 50.7791 43.8341 50.7354 44.1541 50.7016L44.1516 50.6991ZM46.4516 50.7266C46.7741 50.7691 47.0104 50.8141 46.7266 51.1891C46.4416 51.5741 46.3666 51.5441 46.3354 51.2766C46.3041 51.0091 46.1504 50.6966 46.4503 50.7241L46.4516 50.7266ZM46.7266 35.8216C46.4416 36.2041 46.3666 36.1766 46.3354 35.9054C46.3041 35.6341 46.1504 35.3266 46.4503 35.3554C46.7716 35.3904 47.0104 35.4429 46.7266 35.8216ZM44.1491 35.3266C44.4491 35.2941 44.2954 35.6054 44.2679 35.8729C44.2404 36.1404 44.1604 36.1766 43.8766 35.7929C43.5929 35.4091 43.8316 35.3591 44.1516 35.3266H44.1491ZM43.8316 36.9266C44.2941 36.6841 44.6479 35.9804 44.7316 35.4916C44.8403 34.8629 44.9816 34.6166 45.3066 34.5916C45.6316 34.5854 45.7641 34.8641 45.8816 35.4916C45.9629 35.9916 46.3191 36.6829 46.7816 36.9266C47.0691 37.0816 47.9979 37.1016 47.8104 37.6479C47.6791 37.9029 47.5104 38.4029 47.2566 38.1779C47.0028 37.9529 46.5691 37.3654 46.3979 37.3304C46.2266 37.2954 46.2554 37.5629 46.3254 37.6391C46.4254 37.7554 46.7204 38.1766 46.8904 38.3716C47.1029 38.6129 47.1653 39.0591 46.7903 39.2466C46.4153 39.4341 46.0403 39.1966 46.0504 38.9966C46.0629 38.6966 45.8816 37.8391 45.7216 37.8391C45.5916 37.8391 45.5966 38.0591 45.6028 38.3066C45.5478 38.8104 45.8903 39.2116 45.8453 39.4729C45.8003 39.7341 45.7491 39.9954 45.3078 39.9891C44.8603 39.9791 44.8079 39.7316 44.7629 39.4729C44.7179 39.2141 45.0604 38.8104 45.0079 38.3066C45.0279 38.0591 45.0241 37.8391 44.8891 37.8391C44.7303 37.8391 44.5516 38.6979 44.5641 38.9966C44.5716 39.1929 44.1941 39.4179 43.8204 39.2466C43.4466 39.0754 43.5166 38.6254 43.7266 38.3891C43.8966 38.1891 44.1954 37.7679 44.2891 37.6391C44.3566 37.5641 44.3828 37.2979 44.2141 37.3304C44.0453 37.3629 43.6079 37.9504 43.3391 38.1779C43.0704 38.4054 42.9178 37.9029 42.7891 37.6479C42.5966 37.1004 43.5291 37.0829 43.8141 36.9266H43.8316ZM45.3066 43.0516C45.0941 40.9016 46.4491 40.2841 48.0591 40.4079C47.8466 38.2579 48.9341 37.5541 50.8566 37.6354C50.6016 35.1191 52.2991 34.8291 53.6141 34.9129C53.4103 33.0379 54.7453 32.2654 55.6516 32.1704H55.9391C55.8141 40.7954 52.9316 47.4579 49.4791 52.4279C48.0466 52.0729 47.8166 50.9129 47.9316 49.8704C45.8154 50.1204 44.9666 48.5891 45.2604 47.1429C44.4554 47.4304 42.7166 47.0179 42.5066 45.4879C42.2966 43.9579 43.5253 43.0516 45.3066 43.0516ZM38.8066 43.0341C39.1266 43.0666 39.3691 43.1154 39.0841 43.4941C38.7991 43.8729 38.7241 43.8479 38.6928 43.5779C38.6616 43.3079 38.5079 43.0004 38.8179 43.0341H38.8066ZM36.5066 43.0004C36.8004 42.9666 36.6529 43.2804 36.6316 43.5454C36.6103 43.8104 36.5278 43.8479 36.2566 43.4666C35.9853 43.0854 36.2103 43.0354 36.5341 43.0004H36.5066ZM36.1879 44.6004C36.6479 44.3579 37.0041 43.6504 37.0853 43.1629C37.1953 42.5404 37.3316 42.2879 37.6604 42.2654C37.9891 42.2429 38.1229 42.5404 38.2304 43.1629C38.3153 43.6629 38.6704 44.3566 39.1304 44.6004C39.4204 44.7529 40.3503 44.7754 40.1603 45.3254C40.0291 45.5791 39.8604 46.0816 39.6079 45.8554C39.3554 45.6291 38.9166 45.0404 38.7516 45.0054C38.5791 44.9754 38.6053 45.2304 38.6766 45.3179C38.7716 45.4429 39.0679 45.8554 39.2391 46.0516C39.4516 46.2929 39.5116 46.7316 39.1416 46.9079C38.7716 47.0841 38.3891 46.8579 38.3978 46.6579C38.4166 46.3554 38.2291 45.5016 38.0691 45.5016C37.9416 45.5016 37.9378 45.7191 37.9441 45.9604C37.8941 46.4604 38.2316 46.8754 38.1891 47.1354C38.1466 47.3954 38.0916 47.6566 37.6491 47.6504C37.2066 47.6441 37.1491 47.4004 37.1116 47.1354C37.0653 46.8766 37.4029 46.4729 37.3516 45.9604C37.3666 45.7204 37.3603 45.5016 37.2353 45.5016C37.0728 45.5016 36.8929 46.3554 36.9041 46.6579C36.9166 46.8554 36.5353 47.0804 36.1641 46.9079C35.7929 46.7354 35.8579 46.2929 36.0704 46.0516C36.2391 45.8566 36.5353 45.4304 36.6291 45.3179C36.6991 45.2304 36.7266 44.9766 36.5541 45.0054C36.3816 45.0341 35.9503 45.6254 35.6991 45.8554C35.4478 46.0854 35.2741 45.5804 35.1453 45.3254C34.9553 44.7754 35.8953 44.7529 36.1741 44.6004H36.1879ZM35.4966 52.7254C35.3291 51.1079 36.3041 50.0404 37.6178 50.0404C38.9316 50.0404 39.9054 51.1079 39.7391 52.7254C41.1804 52.3129 43.0866 53.0079 42.6229 55.4916C44.2678 54.9341 45.5354 55.7954 45.6154 57.1454C41.9716 60.9416 38.5403 63.0454 37.5504 63.6266C36.5454 63.0516 33.1791 60.9791 29.6041 57.2704C29.6041 55.8479 30.9166 54.9141 32.6141 55.4916C32.1479 53.0079 34.0578 52.3141 35.4966 52.7254ZM32.7841 45.4754C32.5716 47.0029 30.8341 47.4179 30.0304 47.1304C30.3229 48.5766 29.4804 50.1054 27.3579 49.8579C27.4778 50.9379 27.2329 52.1579 25.6679 52.4529C22.2141 47.4779 19.3304 40.7854 19.2004 32.1654C19.2129 32.1654 19.2254 32.1604 19.2379 32.1604H19.6379C20.5479 32.2604 21.8779 33.0279 21.6804 34.9029C22.9929 34.8191 24.6891 35.1091 24.4354 37.6254C26.3429 37.5441 27.4454 38.2466 27.2304 40.3979C28.8554 40.2729 30.2054 40.8916 29.9904 43.0416C31.7679 43.0404 32.9966 43.9504 32.7854 45.4766L32.7841 45.4754ZM28.6529 35.8466C28.6154 36.1191 28.5454 36.1504 28.2579 35.7666C27.9704 35.3829 28.2179 35.3329 28.5366 35.3004C28.8366 35.2679 28.6841 35.5779 28.6529 35.8466ZM30.8366 35.3291C31.1554 35.3666 31.3966 35.4166 31.1116 35.7954C30.8266 36.1741 30.7529 36.1504 30.7204 35.8791C30.6879 35.6079 30.5454 35.3016 30.8366 35.3291ZM30.2616 35.4541C30.3491 35.9541 30.7016 36.6454 31.1641 36.8891C31.4516 37.0441 32.3841 37.0641 32.1916 37.6104C32.0629 37.8654 31.8941 38.3691 31.6391 38.1404C31.3841 37.9116 30.9516 37.3279 30.7828 37.2929C30.6141 37.2579 30.6404 37.5254 30.7116 37.6016C30.8054 37.7179 31.0866 38.1391 31.2741 38.3516C31.4841 38.6016 31.5491 39.0354 31.1791 39.2091C30.8091 39.3829 30.4291 39.1591 30.4354 38.9591C30.4503 38.6591 30.2654 37.8016 30.1054 37.8016C29.9804 37.8016 29.9741 38.0216 29.9803 38.2691C29.9253 38.7729 30.2616 39.1741 30.2204 39.4354C30.1791 39.6966 30.1241 39.9579 29.6804 39.9516C29.2366 39.9454 29.1829 39.6941 29.1404 39.4354C29.0979 39.1766 29.4379 38.7729 29.3829 38.2691C29.4029 38.0216 29.3954 37.8016 29.2579 37.8016C29.0991 37.8016 28.9141 38.6604 28.9266 38.9591C28.9391 39.1554 28.5591 39.3804 28.1766 39.2091C27.7941 39.0379 27.8679 38.5879 28.0816 38.3516C28.2491 38.1516 28.5479 37.7304 28.6416 37.6016C28.7129 37.5266 28.7379 37.2604 28.5691 37.2929C28.4003 37.3254 27.9654 37.9129 27.7104 38.1404C27.4553 38.3679 27.2854 37.8654 27.1604 37.6104C26.9679 37.0629 27.9104 37.0454 28.1854 36.8891C28.6479 36.6466 28.9979 35.9429 29.0854 35.4541C29.1941 34.8254 29.3304 34.5791 29.6554 34.5541C29.9866 34.5479 30.1179 34.8266 30.2254 35.4541H30.2616ZM77.4241 40.2004C77.4241 41.9779 76.2066 43.1754 73.5116 43.1754H68.4578V32.1504H73.3616C75.7016 32.1504 76.9541 33.2166 76.9541 35.0329C76.9541 36.3254 76.2066 37.2241 75.0266 37.5229C76.5803 37.8416 77.4216 38.8904 77.4216 40.2004H77.4241ZM71.5003 36.7504H72.6803C73.4678 36.7504 73.9553 36.4504 73.9553 35.7004C73.9553 34.9504 73.4553 34.6504 72.6803 34.6504H71.5003V36.7504ZM71.5003 40.6629H73.0916C73.8578 40.6629 74.2891 40.3254 74.2891 39.6904C74.2891 39.0554 73.8578 38.7154 73.0916 38.7154H71.5003V40.6629ZM83.4053 41.5779C83.1603 42.7204 82.2803 43.4104 80.8028 43.4104C79.2303 43.4104 78.1278 42.4379 78.1278 40.4104V34.5254H81.1591V39.7504C81.1591 40.6254 81.4016 41.1354 82.0966 41.1354C82.8841 41.1354 83.3716 40.4229 83.3716 39.0204V34.5254H86.3753V43.1729H83.6628L83.4053 41.5779ZM89.4753 40.2004C89.5355 40.5148 89.7065 40.7972 89.9572 40.9963C90.2079 41.1954 90.5217 41.298 90.8416 41.2854C91.3841 41.2854 91.7591 41.0979 91.7591 40.7229C91.7591 40.3479 91.4416 40.1804 90.8216 40.0479L89.6591 39.8041C88.0866 39.4666 87.2628 38.6616 87.2628 37.2391C87.2628 35.1429 89.0603 34.3191 90.9878 34.3191C93.0653 34.3191 94.3191 35.1941 94.6178 36.7904L91.8679 37.2029C91.7741 36.7029 91.4753 36.4354 90.8928 36.4354C90.4628 36.4354 90.1628 36.6416 90.1628 36.9779C90.1628 37.3141 90.4053 37.4829 90.8553 37.5591L92.0153 37.7654C93.9241 38.0841 94.7278 39.1129 94.7278 40.5729C94.7278 42.6129 92.9503 43.3979 90.8153 43.3979C88.8503 43.3979 87.5403 42.6879 87.0653 41.1516L89.4753 40.2004ZM97.1104 30.7816C98.0104 30.7816 98.7766 31.3991 98.7766 32.3729C98.7766 33.3466 98.0091 33.9641 97.1104 33.9641C96.2116 33.9641 95.4454 33.3466 95.4454 32.3729C95.4454 31.3991 96.2129 30.7816 97.1104 30.7816ZM98.6253 34.5254V43.1729H95.6253V34.5254H98.6253ZM102.933 36.1929C103.383 34.9004 104.393 34.3204 105.683 34.3204C107.012 34.3204 108.21 35.1079 108.21 37.0916V43.1754H105.21V38.2504C105.21 37.3704 104.96 36.8279 104.182 36.8279C103.527 36.8279 102.965 37.2216 102.965 38.5504V43.1729H99.9378V34.5254H102.653L102.933 36.1929ZM114.704 40.0504L117.213 40.8379C116.713 42.6904 115.19 43.4004 113.468 43.4004C110.905 43.4004 109.033 41.7729 109.033 38.9454C109.033 36.0254 110.679 34.3204 113.408 34.3204C115.97 34.3204 117.283 35.9679 117.283 38.3641L117.245 39.4516H111.95C112.008 40.5191 112.53 41.0979 113.43 41.0979C114.055 41.0979 114.498 40.8179 114.703 40.0516L114.704 40.0504ZM114.404 37.9154C114.404 37.1654 114.154 36.5104 113.299 36.5104C112.569 36.5104 112.102 37.1104 112.027 37.9154H114.404Z" fill="#838383"/>
<path id="Vector_2" d="M120.038 40.2006C120.098 40.515 120.269 40.7974 120.52 40.9965C120.77 41.1956 121.084 41.2982 121.404 41.2856C121.947 41.2856 122.322 41.0981 122.322 40.7231C122.322 40.3481 122.004 40.1806 121.387 40.0481L120.224 39.8043C118.652 39.4668 117.829 38.6618 117.829 37.2393C117.829 35.1431 119.625 34.3193 121.554 34.3193C123.633 34.3193 124.887 35.1818 125.185 36.7906L122.433 37.2031C122.339 36.7031 122.04 36.4356 121.458 36.4356C121.028 36.4356 120.728 36.6418 120.728 36.9781C120.728 37.3143 120.97 37.4831 121.42 37.5593L122.583 37.7656C124.492 38.0843 125.295 39.1131 125.295 40.5731C125.295 42.6131 123.517 43.3981 121.383 43.3981C119.418 43.3981 118.108 42.6881 117.633 41.1518L120.038 40.2006Z" fill="#838383"/>
<path id="Vector_3" d="M128.051 40.2002C128.111 40.5147 128.282 40.7971 128.532 40.9962C128.783 41.1953 129.097 41.2978 129.417 41.2852C129.959 41.2852 130.335 41.0977 130.335 40.7227C130.335 40.3477 130.017 40.1802 129.398 40.0477L128.238 39.804C126.665 39.4665 125.84 38.6615 125.84 37.239C125.84 35.1427 127.638 34.319 129.565 34.319C131.643 34.319 132.897 35.194 133.197 36.7902L130.443 37.2027C130.35 36.7027 130.05 36.4352 129.47 36.4352C129.04 36.4352 128.74 36.6415 128.74 36.9777C128.74 37.314 128.983 37.4827 129.433 37.559L130.593 37.7652C132.503 38.084 133.308 39.1127 133.308 40.5727C133.308 42.6127 131.529 43.3977 129.395 43.3977C127.43 43.3977 126.12 42.6877 125.645 41.1515L128.051 40.2002ZM74.633 56.5227C74.2793 56.2227 74.148 55.8102 74.0168 55.2877L73.6793 53.9215C73.4918 53.134 73.1743 52.984 72.4618 52.984H71.508V56.5215H68.458V45.5002H73.1743C75.6443 45.5002 77.3493 46.454 77.3493 48.9627C77.3493 50.704 76.2243 51.5652 75.0093 51.7702C76.0193 51.9765 76.5255 52.424 76.788 53.3802L77.313 55.2702C77.4443 55.7702 77.593 56.1452 77.988 56.5252L74.633 56.5227ZM71.508 50.5152H72.688C73.7543 50.5152 74.223 50.0827 74.223 49.2977C74.223 48.5127 73.7543 48.0802 72.688 48.0802H71.508V50.5152ZM83.468 53.3977L85.9755 54.1852C85.4755 56.039 83.953 56.7477 82.2318 56.7477C79.6668 56.7477 77.7943 55.119 77.7943 52.294C77.7943 49.374 79.4418 47.669 82.1693 47.669C84.7318 47.669 86.0443 49.3165 86.0443 51.7115L86.0068 52.799H80.7318C80.788 53.864 81.3118 54.444 82.2105 54.444C82.8455 54.444 83.2768 54.1652 83.483 53.3977H83.468ZM83.168 51.2502C83.168 50.5027 82.918 49.8477 82.0643 49.8477C81.3343 49.8477 80.8668 50.4477 80.7918 51.2502H83.168ZM85.808 47.8752H89.0005L89.993 51.3565L90.5555 53.4727H90.593C90.593 53.4727 90.7805 52.5977 91.1743 51.3565L92.2968 47.8752H95.2342L92.0905 56.5215H88.8343L85.808 47.8752ZM97.373 44.134C98.273 44.134 99.0405 44.7515 99.0405 45.7252C99.0405 46.699 98.2718 47.3152 97.373 47.3152C96.4743 47.3152 95.708 46.699 95.708 45.7252C95.708 44.7515 96.4755 44.134 97.373 44.134ZM98.8755 47.8752V56.5215H95.8755V47.8752H98.8755ZM105.484 53.3977L107.992 54.1852C107.492 56.039 105.971 56.7477 104.249 56.7477C101.687 56.7477 99.8143 55.119 99.8143 52.294C99.8143 49.374 101.462 47.669 104.189 47.669C106.752 47.669 108.064 49.3165 108.064 51.7115L108.027 52.799H102.75C102.807 53.864 103.329 54.444 104.228 54.444C104.853 54.444 105.297 54.1652 105.503 53.3977H105.484ZM105.198 51.2502C105.198 50.5027 104.948 49.8477 104.094 49.8477C103.363 49.8477 102.894 50.4477 102.822 51.2502H105.198ZM116.148 47.8752L116.766 50.8752L117.265 53.5902H117.303L117.846 50.9127L118.538 47.8627H121.475L119.138 56.509H115.763L115.238 53.9815L114.769 51.2115H114.732L114.264 53.9815L113.739 56.509H110.37L108.004 47.8752H111.054L111.747 50.9252L112.289 53.6027H112.327L112.827 50.8877L113.445 47.8877L116.148 47.8752ZM86.8005 26.9752C86.8005 27.3877 86.9255 27.6002 87.2318 27.6002C87.4193 27.6002 87.6068 27.5252 87.7743 27.4315V29.5665C87.3618 29.8665 86.9705 29.979 86.2768 29.979C85.1168 29.979 84.4805 29.454 84.1418 28.6115C83.6418 29.5115 82.8868 30.0165 81.6418 30.0165C80.0518 30.0165 79.058 29.079 79.058 27.6015C79.058 25.7477 80.3868 24.814 82.988 24.814H83.868V24.234C83.868 23.6715 83.6805 23.279 83.138 23.279C82.613 23.279 82.3718 23.5977 82.3343 24.309L79.4505 23.859C79.6193 22.0802 81.0055 20.959 83.2318 20.959C85.703 20.959 86.788 22.0465 86.788 23.9365L86.8005 26.9752ZM83.8805 26.3577H83.5005C82.413 26.3577 82.038 26.6952 82.038 27.2577C82.038 27.6702 82.318 27.9877 82.843 27.9877C83.348 27.9877 83.8905 27.7377 83.8905 26.9215L83.8805 26.3577ZM94.158 24.5802C93.8018 24.449 93.5955 24.3552 93.108 24.3552C92.3955 24.3552 91.5368 24.6352 91.5368 26.1715V29.8215H88.5205V21.1715H91.1043L91.4043 23.3065C91.6468 21.864 92.8643 21.1715 94.3418 21.1715L94.158 24.5802Z" fill="#838383"/>
<path id="Vector_4" d="M94.6255 21.1729H97.8093L98.8005 24.6554L99.363 26.7704H99.4005C99.4005 26.7704 99.588 25.8954 99.9805 24.6554L101.103 21.1729H104.041L100.896 29.8229H97.6505L94.6255 21.1729ZM111.316 26.9754C111.316 27.3879 111.441 27.6004 111.747 27.6004C111.939 27.5904 112.125 27.5324 112.289 27.4317V29.5667C111.877 29.8667 111.484 29.9792 110.792 29.9792C109.632 29.9792 108.996 29.4542 108.658 28.6117C108.158 29.5117 107.404 30.0167 106.158 30.0167C104.567 30.0167 103.574 29.0792 103.574 27.6017C103.574 25.7479 104.902 24.8142 107.504 24.8142H108.384V24.2342C108.384 23.6717 108.197 23.2792 107.654 23.2792C107.129 23.2792 106.887 23.5979 106.849 24.3092L103.967 23.8592C104.134 22.0804 105.521 20.9592 107.748 20.9592C110.219 20.9592 111.304 22.0467 111.304 23.9367L111.316 26.9754ZM108.396 26.3579H108.001C106.916 26.3579 106.542 26.6954 106.542 27.2579C106.542 27.6704 106.822 27.9879 107.347 27.9879C107.853 27.9879 108.397 27.7379 108.397 26.9217L108.396 26.3579ZM118.671 24.5804C118.314 24.4492 118.111 24.3554 117.621 24.3554C116.911 24.3554 116.049 24.6354 116.049 26.1717V29.8217H113.049V21.1717H115.633L115.933 23.3067C116.177 21.8642 117.396 21.1717 118.873 21.1717L118.671 24.5804ZM125.238 18.2529H128.272V29.8217H125.538L125.258 28.3242C124.939 29.4842 123.908 30.0467 122.599 30.0467C120.578 30.0467 119.137 28.4742 119.137 25.6654C119.137 22.7654 120.512 20.9654 122.956 20.9654C124.062 20.9654 124.939 21.4704 125.238 22.2942V18.2529ZM125.258 24.8779C125.258 23.7742 124.714 23.1754 123.836 23.1754C122.957 23.1754 122.207 23.8304 122.207 25.5529C122.207 26.9754 122.807 27.7242 123.797 27.7242C124.566 27.7242 125.259 27.1442 125.259 25.9654L125.258 24.8779ZM68.458 29.8229V18.7979H71.528V22.8979H75.3093V18.7979H78.3793V29.8229H75.3093V25.5542H71.5255V29.8229H68.458Z" fill="#838383"/>
</g>
</g>
</svg>
