<svg width="40" height="41" viewBox="0 0 40 41" fill="none" xmlns="http://www.w3.org/2000/svg">
<circle cx="20" cy="20.3335" r="20" fill="#EAE7FF"/>
<path d="M15.5 26.3335V20.8335M15.5 20.8335V13.8335H20C20.4596 13.8335 20.9148 13.924 21.3394 14.0999C21.764 14.2758 22.1499 14.5336 22.4749 14.8586C22.7999 15.1836 23.0577 15.5695 23.2336 15.9941C23.4095 16.4187 23.5 16.8739 23.5 17.3335C23.5 17.7931 23.4095 18.2482 23.2336 18.6729C23.0577 19.0975 22.7999 19.4834 22.4749 19.8084C22.1499 20.1334 21.764 20.3912 21.3394 20.5671C20.9148 20.743 20.4596 20.8335 20 20.8335H15.5ZM15.5 20.8335H20.5C21.2956 20.8335 22.0587 21.1496 22.6213 21.7122C23.1839 22.2748 23.5 23.0378 23.5 23.8335V26.3335" stroke="#C0C0C0"/>
</svg>
