<svg width="40" height="41" viewBox="0 0 40 41" fill="none" xmlns="http://www.w3.org/2000/svg">
<circle cx="20" cy="20.3335" r="20" fill="#EAE7FF"/>
<path d="M10 11.3335H12L13.33 17.3335H17.33L18.67 11.3335H21.33L22.67 17.3335H26.67L28 11.3335H30L28.67 17.3335H30V19.3335H28.22L27.78 21.3335H30V23.3335H27.33L26 29.3335H23.33L22 23.3335H18L16.67 29.3335H14L12.67 23.3335H10V21.3335H12.22L11.78 19.3335H10V17.3335H11.33L10 11.3335ZM21.11 19.3335H18.89L18.44 21.3335H21.56L21.11 19.3335ZM15.33 26.3335L16 23.3335H14.67L15.33 26.3335ZM16.89 19.3335H13.78L14.22 21.3335H16.44L16.89 19.3335ZM24.67 26.3335L25.33 23.3335H24L24.67 26.3335ZM26.22 19.3335H23.11L23.56 21.3335H25.78L26.22 19.3335ZM20 14.3335L19.33 17.3335H20.67L20 14.3335Z" fill="#C0C0C0"/>
</svg>
