<svg width="40" height="40" viewBox="0 0 40 40" fill="none" xmlns="http://www.w3.org/2000/svg">
<circle cx="20" cy="20" r="20" fill="white"/>
<path d="M24.5999 13.82C23.9163 13.0396 23.5396 12.0374 23.5399 11H20.4499V23.4C20.4261 24.071 20.1428 24.7066 19.6597 25.1729C19.1766 25.6393 18.5314 25.8999 17.8599 25.9C16.4399 25.9 15.2599 24.74 15.2599 23.3C15.2599 21.58 16.9199 20.29 18.6299 20.82V17.66C15.1799 17.2 12.1599 19.88 12.1599 23.3C12.1599 26.63 14.9199 29 17.8499 29C20.9899 29 23.5399 26.45 23.5399 23.3V17.01C24.7929 17.9099 26.2973 18.3926 27.8399 18.39V15.3C27.8399 15.3 25.9599 15.39 24.5999 13.82Z" fill="#28A745"/>
</svg>
