<svg width="40" height="41" viewBox="0 0 40 41" fill="none" xmlns="http://www.w3.org/2000/svg">
<circle cx="20" cy="20.3335" r="20" fill="#EAE7FF"/>
<path d="M17 29.3335V24.1835L14 26.0585V23.6835L17 21.8085V19.4585L14 21.3335V18.9835L17 17.0835V11.3335H19V15.8335L23 13.3335V15.6835L19 18.2085V20.5585L23 18.0585V20.4085L19 22.9335V27.3335C20.3833 27.3335 21.5627 26.8462 22.538 25.8715C23.5127 24.8962 24 23.7168 24 22.3335H26C26 24.2835 25.321 25.9375 23.963 27.2955C22.6043 28.6542 20.95 29.3335 19 29.3335H17Z" fill="#C0C0C0"/>
</svg>
