<svg width="48" height="49" viewBox="0 0 48 49" fill="none" xmlns="http://www.w3.org/2000/svg">
<circle cx="24" cy="24.3335" r="24" fill="#563ACC"/>
<path d="M26.25 23.5835H24.75V17.5835H25.5C26.2949 17.586 27.0565 17.9028 27.6186 18.4649C28.1807 19.027 28.4975 19.7886 28.5 20.5835C28.5 20.7824 28.579 20.9732 28.7197 21.1138C28.8603 21.2545 29.0511 21.3335 29.25 21.3335C29.4489 21.3335 29.6397 21.2545 29.7803 21.1138C29.921 20.9732 30 20.7824 30 20.5835C30 19.39 29.5259 18.2454 28.682 17.4015C27.8381 16.5576 26.6935 16.0835 25.5 16.0835H24.75V14.5835C24.75 14.3846 24.671 14.1938 24.5303 14.0532C24.3897 13.9125 24.1989 13.8335 24 13.8335C23.8011 13.8335 23.6103 13.9125 23.4697 14.0532C23.329 14.1938 23.25 14.3846 23.25 14.5835V16.0835H22.125C20.9315 16.0835 19.7869 16.5576 18.943 17.4015C18.0991 18.2454 17.625 19.39 17.625 20.5835C17.625 21.777 18.0991 22.9216 18.943 23.7655C19.7869 24.6094 20.9315 25.0835 22.125 25.0835H23.25V31.0835H21.75C20.9551 31.081 20.1935 30.7642 19.6314 30.2021C19.0693 29.64 18.7525 28.8784 18.75 28.0835C18.75 27.8846 18.671 27.6938 18.5303 27.5532C18.3897 27.4125 18.1989 27.3335 18 27.3335C17.8011 27.3335 17.6103 27.4125 17.4697 27.5532C17.329 27.6938 17.25 27.8846 17.25 28.0835C17.25 29.277 17.7241 30.4216 18.568 31.2655C19.4119 32.1094 20.5565 32.5835 21.75 32.5835H23.25V34.0835C23.25 34.2824 23.329 34.4732 23.4697 34.6138C23.6103 34.7545 23.8011 34.8335 24 34.8335C24.1989 34.8335 24.3897 34.7545 24.5303 34.6138C24.671 34.4732 24.75 34.2824 24.75 34.0835V32.5835H26.25C27.4435 32.5835 28.5881 32.1094 29.432 31.2655C30.2759 30.4216 30.75 29.277 30.75 28.0835C30.75 26.89 30.2759 25.7454 29.432 24.9015C28.5881 24.0576 27.4435 23.5835 26.25 23.5835ZM23.25 23.5835H22.125C21.3294 23.5835 20.5663 23.2674 20.0037 22.7048C19.4411 22.1422 19.125 21.3791 19.125 20.5835C19.125 19.7878 19.4411 19.0248 20.0037 18.4622C20.5663 17.8996 21.3294 17.5835 22.125 17.5835H23.25V23.5835ZM26.25 31.0835H24.75V25.0835H26.25C27.0456 25.0835 27.8087 25.3996 28.3713 25.9622C28.9339 26.5248 29.25 27.2878 29.25 28.0835C29.25 28.8791 28.9339 29.6422 28.3713 30.2048C27.8087 30.7674 27.0456 31.0835 26.25 31.0835Z" fill="white"/>
</svg>
