<svg width="25" height="494" viewBox="0 0 25 494" fill="none" xmlns="http://www.w3.org/2000/svg">
<line x1="13.5" y1="2.18557e-08" x2="13.5" y2="225" stroke="#949494" stroke-opacity="0.5"/>
<line x1="13.5" y1="269" x2="13.5" y2="494" stroke="#949494" stroke-opacity="0.5"/>
<path d="M13.6 239.986L8.344 253H6.157L0.901 239.986H2.845C3.055 239.986 3.226 240.037 3.358 240.139C3.49 240.241 3.589 240.373 3.655 240.535L6.724 248.473C6.826 248.731 6.922 249.016 7.012 249.328C7.108 249.634 7.198 249.955 7.282 250.291C7.354 249.955 7.432 249.634 7.516 249.328C7.6 249.016 7.693 248.731 7.795 248.473L10.846 240.535C10.894 240.397 10.987 240.271 11.125 240.157C11.269 240.043 11.443 239.986 11.647 239.986H13.6ZM21.5606 242.353C21.4886 242.479 21.4106 242.572 21.3266 242.632C21.2486 242.686 21.1496 242.713 21.0296 242.713C20.9036 242.713 20.7656 242.668 20.6156 242.578C20.4716 242.482 20.2976 242.377 20.0936 242.263C19.8896 242.149 19.6496 242.047 19.3736 241.957C19.1036 241.861 18.7826 241.813 18.4106 241.813C18.0746 241.813 17.7806 241.855 17.5286 241.939C17.2766 242.017 17.0636 242.128 16.8896 242.272C16.7216 242.416 16.5956 242.59 16.5116 242.794C16.4276 242.992 16.3856 243.211 16.3856 243.451C16.3856 243.757 16.4696 244.012 16.6376 244.216C16.8116 244.42 17.0396 244.594 17.3216 244.738C17.6036 244.882 17.9246 245.011 18.2846 245.125C18.6446 245.239 19.0136 245.362 19.3916 245.494C19.7696 245.62 20.1386 245.77 20.4986 245.944C20.8586 246.112 21.1796 246.328 21.4616 246.592C21.7436 246.85 21.9686 247.168 22.1366 247.546C22.3106 247.924 22.3976 248.383 22.3976 248.923C22.3976 249.511 22.2956 250.063 22.0916 250.579C21.8936 251.089 21.5996 251.536 21.2096 251.92C20.8256 252.298 20.3546 252.598 19.7966 252.82C19.2386 253.036 18.5996 253.144 17.8796 253.144C17.4656 253.144 17.0576 253.102 16.6556 253.018C16.2536 252.94 15.8666 252.826 15.4946 252.676C15.1286 252.526 14.7836 252.346 14.4596 252.136C14.1356 251.926 13.8476 251.692 13.5956 251.434L14.3066 250.273C14.3666 250.189 14.4446 250.12 14.5406 250.066C14.6366 250.006 14.7386 249.976 14.8466 249.976C14.9966 249.976 15.1586 250.039 15.3326 250.165C15.5066 250.285 15.7136 250.42 15.9536 250.57C16.1936 250.72 16.4726 250.858 16.7906 250.984C17.1146 251.104 17.5016 251.164 17.9516 251.164C18.6416 251.164 19.1756 251.002 19.5536 250.678C19.9316 250.348 20.1206 249.877 20.1206 249.265C20.1206 248.923 20.0336 248.644 19.8596 248.428C19.6916 248.212 19.4666 248.032 19.1846 247.888C18.9026 247.738 18.5816 247.612 18.2216 247.51C17.8616 247.408 17.4956 247.297 17.1236 247.177C16.7516 247.057 16.3856 246.913 16.0256 246.745C15.6656 246.577 15.3446 246.358 15.0626 246.088C14.7806 245.818 14.5526 245.482 14.3786 245.08C14.2106 244.672 14.1266 244.171 14.1266 243.577C14.1266 243.103 14.2196 242.641 14.4056 242.191C14.5976 241.741 14.8736 241.342 15.2336 240.994C15.5936 240.646 16.0376 240.367 16.5656 240.157C17.0936 239.947 17.6996 239.842 18.3836 239.842C19.1516 239.842 19.8596 239.962 20.5076 240.202C21.1556 240.442 21.7076 240.778 22.1636 241.21L21.5606 242.353Z" fill="#3A3A3A"/>
</svg>
