<svg width="61" height="30" viewBox="0 0 61 30" fill="none" xmlns="http://www.w3.org/2000/svg">
<g id="y-combinator-seeklogo.com 1" clip-path="url(#clip0_25451_47)">
<g id="XMLID_70_">
<path id="XMLID_65_" d="M30 0H0V30H30V0Z" fill="#838383"/>
<path id="XMLID_64_" d="M13.9998 16.9998L8.7998 7.2998H11.1998L14.1998 13.3998C14.1998 13.4998 14.2998 13.5998 14.3998 13.6998C14.4998 13.7998 14.4998 13.8998 14.5998 14.0998L14.6998 14.1998V14.2998C14.7998 14.4998 14.7998 14.5998 14.8998 14.7998C14.9998 14.8998 14.9998 15.0998 15.0998 15.1998C15.1998 14.8998 15.3998 14.6998 15.4998 14.2998C15.5998 13.9998 15.7998 13.6998 15.9998 13.3998L18.9998 7.2998H21.1998L15.9998 17.0998V23.2998H13.9998V16.9998Z" fill="white"/>
</g>
<g id="XMLID_72_">
<path id="XMLID_74_" d="M43.7 5.7998C45.2 5.7998 46.5 6.1998 47.5 6.9998L46.5 8.1998C45.6 7.5998 44.7 7.1998 43.6 7.1998C41.9 7.1998 40.6 8.0998 39.9 9.7998C39.5 10.7998 39.3 12.0998 39.3 13.7998C39.3 15.0998 39.5 16.1998 39.8 16.9998C40.6 18.8998 41.9 19.7998 43.9 19.7998C45 19.7998 46 19.4998 46.9 18.7998L47.9 20.0998C46.6 20.8998 45.2 21.2998 43.7 21.2998C41.9 21.2998 40.4 20.5998 39.2 19.0998C38 17.6998 37.5 15.7998 37.5 13.4998C37.5 11.1998 38.1 9.3998 39.3 7.8998C40.4 6.5998 41.9 5.7998 43.7 5.7998Z" fill="#838383"/>
<path id="XMLID_181_" d="M49.4004 15.7004C49.4004 13.9004 49.8004 12.5004 50.7004 11.5004C51.6004 10.5004 52.7004 9.90039 54.1004 9.90039C55.7004 9.90039 57.0004 10.5004 57.9004 11.8004C58.6004 12.8004 58.9004 14.2004 58.9004 15.9004C58.9004 17.9004 58.3004 19.5004 57.2004 20.5004C56.4004 21.2004 55.4004 21.6004 54.2004 21.6004C52.7004 21.6004 51.6004 21.1004 50.7004 20.0004C49.8004 19.0004 49.4004 17.5004 49.4004 15.7004ZM56.4004 12.8004C55.9004 11.9004 55.2004 11.4004 54.1004 11.4004C53.0004 11.4004 52.3004 11.8004 51.8004 12.6004C51.4004 13.2004 51.3004 14.2004 51.3004 15.5004C51.3004 17.2004 51.5004 18.4004 52.0004 19.1004C52.5004 19.8004 53.2004 20.2004 54.2004 20.2004C55.4004 20.2004 56.2004 19.6004 56.6004 18.5004C56.8004 17.9004 56.9004 17.1004 56.9004 16.1004C57.0004 14.6004 56.8004 13.5004 56.4004 12.8004Z" fill="#838383"/>
</g>
</g>
<defs>
<clipPath id="clip0_25451_47">
<rect width="145" height="30" fill="white"/>
</clipPath>
</defs>
</svg>
