<svg width="40" height="40" viewBox="0 0 40 40" fill="none" xmlns="http://www.w3.org/2000/svg">
<circle cx="20" cy="20" r="20" fill="white"/>
<path d="M30.0576 14.945C29.9381 14.5011 29.7041 14.0963 29.3789 13.7712C29.0538 13.446 28.649 13.212 28.2051 13.0925C26.5701 12.65 20.0001 12.65 20.0001 12.65C20.0001 12.65 13.4301 12.65 11.7951 13.0925C11.3511 13.212 10.9463 13.446 10.6212 13.7712C10.2961 14.0963 10.0621 14.5011 9.94258 14.945C9.63729 16.6125 9.48914 18.3049 9.50008 20C9.48914 21.6952 9.63729 23.3876 9.94258 25.055C10.0621 25.499 10.2961 25.9038 10.6212 26.2289C10.9463 26.554 11.3511 26.788 11.7951 26.9075C13.4301 27.35 20.0001 27.35 20.0001 27.35C20.0001 27.35 26.5701 27.35 28.2051 26.9075C28.649 26.788 29.0538 26.554 29.3789 26.2289C29.7041 25.9038 29.9381 25.499 30.0576 25.055C30.3629 23.3876 30.511 21.6952 30.5001 20C30.511 18.3049 30.3629 16.6125 30.0576 14.945ZM17.9001 23.15V16.85L23.3526 20L17.9001 23.15Z" fill="#28A745"/>
</svg>
